<?xml version="1.0" encoding="utf-8"?>
<!-- Generator: Adobe Illustrator 23.0.3, SVG Export Plug-In . SVG Version: 6.00 Build 0)  -->
<svg version="1.1" id="Layer_1" xmlns="http://www.w3.org/2000/svg" xmlns:xlink="http://www.w3.org/1999/xlink" x="0px" y="0px"
	 viewBox="0 0 740 680" style="enable-background:new 0 0 740 680;" xml:space="preserve">
<style type="text/css">
	.st0{fill-rule:evenodd;clip-rule:evenodd;fill:#CCEEFF;}
	.st1{fill-rule:evenodd;clip-rule:evenodd;fill:#F2F2F2;}
	.st2{fill-rule:evenodd;clip-rule:evenodd;fill:#FFFFFF;}
	.st3{fill-rule:evenodd;clip-rule:evenodd;fill:#0052CC;}
	.st4{fill-rule:evenodd;clip-rule:evenodd;fill:#AFB9C5;}
	.st5{fill-rule:evenodd;clip-rule:evenodd;fill:#F7B58E;}
	.st6{fill-rule:evenodd;clip-rule:evenodd;fill:#191847;}
	.st7{fill-rule:evenodd;clip-rule:evenodd;fill:#003D99;}
	.st8{fill-rule:evenodd;clip-rule:evenodd;}
	.st9{fill-rule:evenodd;clip-rule:evenodd;fill:#00D99B;}
	.st10{fill-rule:evenodd;clip-rule:evenodd;fill:#00F3AD;}
</style>
<g>
	<path class="st0" d="M611.1,145.7c38.9,71.1-27.2,182.2-147.7,248.2s-249.7,61.9-288.7-9.2s61.5-117.2,182-183.2
		S572.1,74.6,611.1,145.7z"/>
	<g id="Web" transform="translate(270.000000, 127.000000)">
		<path class="st1" d="M80.3,35.5h233.1c3.2,0,5.8,2.6,5.8,5.8v241.2c0,3.2-2.6,5.8-5.8,5.8H80.3c-3.2,0-5.8-2.6-5.8-5.8V41.3
			C74.4,38,77.1,35.5,80.3,35.5z"/>
		<path class="st2" d="M262.2,66.9h39.5c3.2,0,5.8,2.6,5.8,5.8v47.5c0,3.2-2.6,5.8-5.8,5.8h-39.5c-3.2,0-5.8-2.6-5.8-5.8V72.7
			C256.4,69.5,259,66.9,262.2,66.9z"/>
		<g id="Profile-Info" transform="translate(259.000000, 58.000000)">
			<circle class="st0" cx="23" cy="31.6" r="11.7"/>
			<path class="st0" d="M6.9,46.2H39c1.2,0,2.2,1,2.2,2.2l0,0c0,1.2-1,2.2-2.2,2.2H6.9c-1.2,0-2.2-1-2.2-2.2l0,0
				C4.7,47.1,5.7,46.2,6.9,46.2z"/>
			<path class="st0" d="M12.7,53.5h20.5c1.2,0,2.2,1,2.2,2.2l0,0c0,1.2-1,2.2-2.2,2.2H12.7c-1.2,0-2.2-1-2.2-2.2l0,0
				C10.5,54.4,11.6,53.5,12.7,53.5z"/>
		</g>
		<path id="Header" class="st3" d="M80.3,35.5h233.1c3.2,0,5.8,2.6,5.8,5.8v13.9H74.4V41.3C74.4,38,77.1,35.5,80.3,35.5z"/>
		<g id="Buttons" transform="translate(9.000000, 10.000000)">
			<circle id="buttons" class="st1" cx="74.9" cy="35.7" r="2.9"/>
			<circle class="st1" cx="83.7" cy="35.7" r="2.9"/>
			<circle class="st1" cx="92.5" cy="35.7" r="2.9"/>
		</g>
		<g id="Components" transform="translate(249.000000, 132.000000)">
			<path class="st2" d="M13.2-0.1h39.5c3.2,0,5.8,2.6,5.8,5.8v130.1c0,3.2-2.6,5.8-5.8,5.8H13.2c-3.2,0-5.8-2.6-5.8-5.8V5.8
				C7.4,2.5,10-0.1,13.2-0.1z"/>
			<g transform="translate(18.000000, 18.000000)">
				<path id="Data" class="st0" d="M5.5-4.9h19c1.6,0,2.9,1.3,2.9,2.9v13.2c0,1.6-1.3,2.9-2.9,2.9h-19c-1.6,0-2.9-1.3-2.9-2.9V-2
					C2.5-3.7,3.9-4.9,5.5-4.9z"/>
				<path class="st0" d="M5.5,19.9h19c1.6,0,2.9,1.3,2.9,2.9v12.4c0,1.6-1.3,2.9-2.9,2.9h-19c-1.6,0-2.9-1.3-2.9-2.9V22.9
					C2.5,21.2,3.9,19.9,5.5,19.9z"/>
				<path class="st0" d="M5.5,44.1h19c1.6,0,2.9,1.3,2.9,2.9v12.4c0,1.6-1.3,2.9-2.9,2.9h-19c-1.6,0-2.9-1.3-2.9-2.9V47
					C2.5,45.3,3.9,44.1,5.5,44.1z"/>
				<path class="st0" d="M5.5,92.3h19c1.6,0,2.9,1.3,2.9,2.9v12.4c0,1.6-1.3,2.9-2.9,2.9h-19c-1.6,0-2.9-1.3-2.9-2.9V95.2
					C2.5,93.5,3.9,92.3,5.5,92.3z"/>
				<path class="st0" d="M5.5,68.2h19c1.6,0,2.9,1.3,2.9,2.9v12.4c0,1.6-1.3,2.9-2.9,2.9h-19c-1.6,0-2.9-1.3-2.9-2.9V71.1
					C2.5,69.4,3.9,68.2,5.5,68.2z"/>
			</g>
		</g>
		<g transform="translate(16.000000, 44.000000)">
			<g>
				<path class="st2" d="M73,23.6h158.6c1.6,0,2.9,1.3,2.9,2.9V55c0,1.6-1.3,2.9-2.9,2.9H73c-1.6,0-2.9-1.3-2.9-2.9V26.6
					C70.1,24.9,71.4,23.6,73,23.6z"/>
				<g transform="translate(9.000000, 14.100000)">
					<path class="st0" d="M69.9,19.8h117.7c1.2,0,2.2,1,2.2,2.2v0.8c0,1.2-0.9,2.2-2.2,2.2H69.9c-1.2,0-2.2-1-2.2-2.2V22
						C67.7,20.8,68.7,19.8,69.9,19.8z"/>
					<path class="st0" d="M69.9,28.4h77.5c1.2,0,2.2,1,2.2,2.2v0.7c0,1.2-1,2.2-2.2,2.2H69.9c-1.2,0-2.2-1-2.2-2.2v-0.7
						C67.7,29.3,68.7,28.4,69.9,28.4z"/>
				</g>
				<g transform="translate(193.954198, 16.500000)">
					<circle class="st0" cx="23" cy="24.3" r="5.1"/>
					<circle class="st1" cx="23" cy="24.3" r="2.2"/>
				</g>
			</g>
			<g transform="translate(0.000000, 55.000000)">
				<path class="st2" d="M73,8.8h158.6c1.6,0,2.9,1.3,2.9,2.9v22.7c0,1.6-1.3,2.9-2.9,2.9H73c-1.6,0-2.9-1.3-2.9-2.9V11.7
					C70.1,10.1,71.4,8.8,73,8.8z"/>
				<g transform="translate(9.000000, 11.700000)">
					<path class="st0" d="M69.8,5.7h117.7c1.2,0,2.1,1,2.1,2.1l0,0c0,1.2-1,2.1-2.1,2.1H69.8c-1.2,0-2.1-1-2.1-2.1l0,0
						C67.7,6.6,68.7,5.7,69.8,5.7z"/>
					<path class="st0" d="M69.8,12.8h77.7c1.2,0,2.1,1,2.1,2.1l0,0c0,1.2-1,2.1-2.1,2.1H69.8c-1.2,0-2.1-1-2.1-2.1l0,0
						C67.7,13.7,68.7,12.8,69.8,12.8z"/>
				</g>
				<g transform="translate(193.954198, 12.500000)">
					<circle class="st0" cx="23" cy="10.6" r="5.1"/>
					<circle class="st1" cx="23" cy="10.6" r="2.2"/>
				</g>
			</g>
			<g transform="translate(0.000000, 102.000000)">
				<path class="st2" d="M73-3.8h158.6c1.6,0,2.9,1.3,2.9,2.9v22.7c0,1.6-1.3,2.9-2.9,2.9H73c-1.6,0-2.9-1.3-2.9-2.9V-0.9
					C70.1-2.6,71.4-3.8,73-3.8z"/>
				<g transform="translate(9.000000, 11.700000)">
					<path class="st0" d="M69.8-7h117.7c1.2,0,2.1,1,2.1,2.1l0,0c0,1.2-1,2.1-2.1,2.1H69.8c-1.2,0-2.1-1-2.1-2.1l0,0
						C67.7-6,68.7-7,69.8-7z"/>
					<path class="st0" d="M69.8,0.1h77.7c1.2,0,2.1,1,2.1,2.1l0,0c0,1.2-1,2.1-2.1,2.1H69.8c-1.2,0-2.1-1-2.1-2.1l0,0
						C67.7,1.1,68.7,0.1,69.8,0.1z"/>
				</g>
				<g transform="translate(193.954198, 12.500000)">
					<circle class="st0" cx="23" cy="-2.1" r="5.1"/>
					<circle class="st4" cx="23" cy="-2.1" r="2.2"/>
				</g>
			</g>
			<g transform="translate(0.000000, 243.000000)">
				<path class="st2" d="M73-41.8h158.6c1.6,0,2.9,1.3,2.9,2.9v22.7c0,1.6-1.3,2.9-2.9,2.9H73c-1.6,0-2.9-1.3-2.9-2.9v-22.7
					C70.1-40.6,71.4-41.8,73-41.8z"/>
				<g transform="translate(9.000000, 11.700000)">
					<path class="st0" d="M69.8-44.9h117.7c1.2,0,2.1,1,2.1,2.1l0,0c0,1.2-1,2.1-2.1,2.1H69.8c-1.2,0-2.1-1-2.1-2.1l0,0
						C67.7-44,68.7-44.9,69.8-44.9z"/>
					<path class="st0" d="M69.8-37.9h77.7c1.2,0,2.1,1,2.1,2.1l0,0c0,1.2-1,2.1-2.1,2.1H69.8c-1.2,0-2.1-1-2.1-2.1l0,0
						C67.7-36.9,68.7-37.9,69.8-37.9z"/>
				</g>
				<g transform="translate(193.954198, 12.500000)">
					<circle class="st0" cx="23" cy="-40" r="5.1"/>
					<circle class="st1" cx="23" cy="-40" r="2.2"/>
				</g>
			</g>
			<g transform="translate(0.000000, 196.000000)">
				<path class="st2" d="M73-29.1h158.6c1.6,0,2.9,1.3,2.9,2.9v22.6c0,1.6-1.3,2.9-2.9,2.9H73c-1.6,0-2.9-1.3-2.9-2.9v-22.6
					C70.1-27.9,71.4-29.1,73-29.1z"/>
				<g transform="translate(9.000000, 11.700000)">
					<path class="st0" d="M69.8-32.3h117.7c1.2,0,2.1,1,2.1,2.1l0,0c0,1.2-1,2.1-2.1,2.1H69.8c-1.2,0-2.1-1-2.1-2.1l0,0
						C67.7-31.3,68.7-32.3,69.8-32.3z"/>
					<path class="st0" d="M69.8-25.2h77.7c1.2,0,2.1,1,2.1,2.1l0,0c0,1.2-1,2.1-2.1,2.1H69.8c-1.2,0-2.1-1-2.1-2.1l0,0
						C67.7-24.3,68.7-25.2,69.8-25.2z"/>
				</g>
				<g transform="translate(193.954198, 12.500000)">
					<circle class="st0" cx="23" cy="-27.4" r="5.1"/>
					<circle class="st1" cx="23" cy="-27.4" r="2.2"/>
				</g>
			</g>
			<g transform="translate(0.000000, 149.000000)">
				<path class="st2" d="M73-16.5h158.6c1.6,0,2.9,1.3,2.9,2.9V9.1c0,1.6-1.3,2.9-2.9,2.9H73c-1.6,0-2.9-1.3-2.9-2.9v-22.7
					C70.1-15.2,71.4-16.5,73-16.5z"/>
				<g transform="translate(9.000000, 11.700000)">
					<path class="st0" d="M69.8-19.6h117.7c1.2,0,2.1,1,2.1,2.1l0,0c0,1.2-1,2.1-2.1,2.1H69.8c-1.2,0-2.1-1-2.1-2.1l0,0
						C67.7-18.7,68.7-19.6,69.8-19.6z"/>
					<path class="st0" d="M69.8-12.5h77.7c1.2,0,2.1,1,2.1,2.1l0,0c0,1.2-1,2.1-2.1,2.1H69.8c-1.2,0-2.1-1-2.1-2.1l0,0
						C67.7-11.6,68.7-12.5,69.8-12.5z"/>
				</g>
				<g transform="translate(193.954198, 12.500000)">
					<circle class="st0" cx="23" cy="-14.7" r="5.1"/>
					<circle class="st1" cx="23" cy="-14.7" r="2.2"/>
				</g>
			</g>
		</g>
	</g>
	<g>
		<g id="Head_1_" transform="translate(54.000000, 31.000000)">
			<path class="st5" d="M169,162.7c-4.6-5.4-7.7-12-7.2-19.5c1.5-21.4,31.3-16.7,37.1-5.9c5.8,10.8,5.1,38.2-2.4,40.1
				c-3,0.8-9.3-1.1-15.8-5l4.1,28.8h-24L169,162.7z"/>
		</g>
		<path id="Combined-Shape" class="st6" d="M230.5,182.1c-0.8-0.5-1.7-0.9-2.7-0.9c-2.8,0-5,2.5-5,5c0,2.6,1.2,4.7,3,5.5
			c-1,1.9-1.9,3.2-3,3.5c-4.3-0.4-10-11.2-10-20c0-9.7,7.7-18,22-18c12.9,0,17.7,5.3,18,10c-5.5,1.5-18,1.6-18,1.6l3,8.4
			C234.6,177,232.3,179.2,230.5,182.1z"/>
	</g>
	<g>
		<g id="humaaan-4" transform="translate(28.000000, 9.000000)">
			<g transform="translate(0.000000, 202.587623)">
				<polygon id="Leg" class="st7" points="175.4,112.6 227.4,250.5 263.9,352 284.8,352 234.6,112.6 				"/>
				<path class="st3" d="M162.5,112.6c-0.6,47.3-0.2,111-1.5,113.9c-0.9,2-28.2,24.4-82.1,67.2l10.7,18.2
					c63.9-41.2,97.5-64.6,100.8-70.1c4.9-8.2,29.5-84,42.3-129.3L162.5,112.6L162.5,112.6z"/>
				
					<g transform="translate(61.202150, 204.729315) rotate(50.000000) translate(-61.202150, -204.729315) translate(28.163821, 183.064837)">
					<path id="Shoe" class="st8" d="M109.9,87.6l1.1-22.7l22.7,0c10.8,7.6,24.9,13.7,42.2,18.4l0,4.3l-41.2,0l-14.1-2.2v2.2
						L109.9,87.6z"/>
				</g>
				<g transform="translate(225.310568, 215.561553)">
					<path class="st8" d="M36.7,156l1.1-22.7h22.7c10.8,7.6,24.9,13.7,42.2,18.4v4.3H61.6l-14.1-2.2v2.2H36.7z"/>
				</g>
			</g>
		</g>
	</g>
	<g>
		<path id="Skin_1_" class="st5" d="M292.9,219.3l37.9-11.4c7.1-5.5,13.7-9.5,20-12.1c1.8-0.3,4.8-0.1,1.1,4.1
			c-3.8,4.3-7.5,8.9-6.5,10.7c1.1,1.8,5,0.4,6.1,3.3c0.8,1.9-5.7,3.3-19.5,4.1l-29.5,17.3L292.9,219.3z M289.5,286.1l31.9,23.4
			c8.7,2.3,15.9,5.2,21.7,8.7c1.4,1.2,3,3.8-2.7,3.3c-5.7-0.4-11.7-0.6-12.5,1.3s2.7,4.3,1.1,6.9c-1.1,1.7-6.1-2.6-15-13.1
			l-31.6-13.1L289.5,286.1z"/>
		<path id="Coat-Back" class="st9" d="M240,223.1c17.4,32.4,42.5,57.2,78.9,83l-13.8,15.5c-40.7-15.1-62.1-24.2-72.7-54.8
			c-2.6-7.7-4.5-32.2-6.1-45L240,223.1z"/>
		<path id="Shirt" class="st1" d="M191.4,331h77c-17.4-53.2-26.4-89.7-26.7-109.5c0-1-1.9-2.8-2.7-2.6c-6,1.7-12.5,1.1-19.4-1.9
			C201.3,246.3,195,282.5,191.4,331z"/>
		<path id="Coat-Front" class="st10" d="M226.2,217c22.1,0.2,57.9,4.2,99.2-9l4.1,20.4c-31.2,20.1-62.8,35.6-90.5,33.4
			c12,51.6,11.5,93.8-15.1,93.8c-12.7,0-26.4,0-41.1,0c-6.5-43.8,10.6-104.6,26.5-135.2c0.6-1.2,1.9-3.4,4.9-3.4
			C216.9,217,220.8,217,226.2,217C226.1,217,226.1,217,226.2,217z"/>
	</g>
</g>
<g id="Layer_3">
</g>
<g id="Layer_4">
</g>
</svg>
