<svg width="584" height="520" viewBox="0 0 584 520" fill="none" xmlns="http://www.w3.org/2000/svg">
<rect width="158.264" height="58.5279" transform="matrix(0.866044 0.499967 -0.866044 0.499967 370.426 111.316)" fill="#D4F3E1"/>
<path d="M84.2648 366.585V366.585C94.627 372.568 111.428 372.569 121.791 366.587L455.279 174.081" stroke="black" stroke-width="0.5"/>
<path d="M529.241 169.159L407.981 99.1562L355.639 129.373L355.641 147.667L476.9 217.67L529.242 187.453L529.241 169.159Z" fill="#F1FFF7" stroke="black" stroke-width="0.5" stroke-linejoin="round"/>
<path d="M476.898 138.943L407.98 99.1562L355.638 129.373L355.639 147.667L476.898 217.67V138.943Z" fill="#D4F3E1" stroke="black" stroke-width="0.5" stroke-linejoin="round"/>
<rect width="140.015" height="60.4381" transform="matrix(0.866044 0.499967 -0.866044 0.499967 407.98 99.1562)" fill="white" stroke="black" stroke-width="0.5" stroke-linejoin="round"/>
<rect width="140.015" height="60.4381" transform="matrix(0.866044 0.499967 -0.866044 0.499967 407.98 99.1562)" fill="white" stroke="black" stroke-width="0.5" stroke-linejoin="round"/>
<rect width="118.359" height="29.4277" transform="matrix(0.866044 0.499967 -0.866044 0.499967 390.938 120.324)" fill="#D4F3E1"/>
<rect width="140.015" height="60.4381" transform="matrix(0.866044 0.499967 -0.866044 0.499967 407.98 99.1562)" stroke="black" stroke-width="0.5" stroke-linejoin="round"/>
<path d="M487.64 96.9379L498.742 90.5L498.479 176.229L487.418 182.711L487.64 96.9379Z" fill="#D4F3E1" stroke="black" stroke-width="0.5" stroke-linejoin="round"/>
<path d="M487.637 96.9408L487.375 182.736L385.156 123.678L385.419 37.8828L487.637 96.9408Z" fill="white" stroke="black" stroke-width="0.5" stroke-linejoin="round"/>
<path d="M477.851 120.686L438.8 98.1055L438.699 130.908" stroke="black" stroke-width="0.5" stroke-linejoin="round"/>
<rect x="-0.216492" y="0.124992" width="46.7751" height="5.34039" rx="2.6702" transform="matrix(-0.866007 -0.500033 3.76796e-05 1 431.201 139.532)" fill="white" stroke="black" stroke-width="0.5"/>
<path d="M431.389 142.436C431.389 140.961 430.354 139.168 429.077 138.43L419.654 132.99C418.377 132.252 417.342 132.85 417.342 134.325C417.342 135.8 418.377 137.593 419.654 138.33L429.077 143.771C430.354 144.508 431.389 143.911 431.389 142.436Z" fill="#B4F7E7" stroke="black" stroke-width="0.5"/>
<rect x="-0.216492" y="0.124992" width="46.7751" height="5.34039" rx="2.6702" transform="matrix(-0.866007 -0.500033 3.76796e-05 1 431.201 128.923)" fill="white" stroke="black" stroke-width="0.5"/>
<path d="M431.389 131.826C431.389 130.352 430.354 128.558 429.077 127.821L412.151 118.048C410.874 117.311 409.839 117.908 409.839 119.383C409.839 120.858 410.874 122.651 412.151 123.389L429.077 133.161C430.354 133.899 431.389 133.301 431.389 131.826Z" fill="#B4F7E7" stroke="black" stroke-width="0.5"/>
<path d="M487.516 149.372L444.527 124.551L444.528 157.825" stroke="black" stroke-width="0.5" stroke-linejoin="round"/>
<path d="M487.516 164.912L444.527 140.09L444.527 157.827" stroke="black" stroke-width="0.5" stroke-linejoin="round"/>
<rect width="32.8574" height="49.2657" transform="matrix(-0.866007 -0.500033 3.7683e-05 1 472.984 124.988)" stroke="black" stroke-width="0.5" stroke-linejoin="round"/>
<path d="M487.512 133.375L444.525 108.555L444.527 157.826" stroke="black" stroke-width="0.5" stroke-linejoin="round"/>
<rect width="15.8119" height="49.2554" transform="matrix(-0.866007 -0.500033 3.7683e-05 1 458.219 116.477)" stroke="black" stroke-width="0.5" stroke-linejoin="round"/>
<path d="M487.678 96.9023L385.433 37.8711L385.435 50.6305L487.68 109.662L487.678 96.9023Z" fill="#EDFFF5" stroke="black" stroke-width="0.5" stroke-linejoin="round"/>
<path d="M394.945 49.4542C394.539 50.9688 392.983 51.8676 391.468 51.4618C389.953 51.056 389.055 49.4992 389.46 47.9846C389.866 46.47 391.423 45.5712 392.938 45.977C394.452 46.3828 395.351 47.9396 394.945 49.4542Z" fill="white" stroke="black" stroke-width="0.5" stroke-linejoin="round"/>
<path d="M393.444 47.5845C393.06 49.018 391.558 49.8849 390.125 49.5008C389.875 49.434 389.643 49.3048 389.472 49.1924C389.658 50.2442 390.426 51.118 391.486 51.4019C392.981 51.8027 394.562 50.8902 394.963 49.3943C395.33 48.0231 394.634 46.634 393.437 46.113C393.507 46.5994 393.577 47.0858 393.444 47.5845Z" fill="#D1D1D1"/>
<path d="M394.945 49.4542C394.539 50.9688 392.983 51.8676 391.468 51.4618C389.953 51.056 389.055 49.4992 389.46 47.9846C389.866 46.47 391.423 45.5712 392.938 45.977C394.452 46.3828 395.351 47.9396 394.945 49.4542Z" stroke="black" stroke-width="0.5" stroke-linejoin="round"/>
<path d="M402.254 53.466C401.848 54.9805 400.291 55.8794 398.777 55.4735C397.262 55.0677 396.363 53.5109 396.769 51.9963C397.175 50.4817 398.732 49.5829 400.246 49.9887C401.761 50.3946 402.66 51.9514 402.254 53.466Z" fill="white" stroke="black" stroke-width="0.5" stroke-linejoin="round"/>
<path d="M400.752 51.5962C400.368 53.0297 398.867 53.8966 397.433 53.5125C397.184 53.4457 396.951 53.3166 396.781 53.2041C396.967 54.2559 397.735 55.1297 398.794 55.4136C400.29 55.8144 401.871 54.9019 402.271 53.4061C402.639 52.0349 401.942 50.6458 400.746 50.1248C400.816 50.6112 400.886 51.0976 400.752 51.5962Z" fill="#D1D1D1"/>
<path d="M402.254 53.466C401.848 54.9805 400.291 55.8794 398.777 55.4735C397.262 55.0677 396.363 53.5109 396.769 51.9963C397.175 50.4817 398.732 49.5829 400.246 49.9887C401.761 50.3946 402.66 51.9514 402.254 53.466Z" stroke="black" stroke-width="0.5" stroke-linejoin="round"/>
<path d="M409.75 57.591C409.344 59.1055 407.787 60.0044 406.273 59.5985C404.758 59.1927 403.859 57.6359 404.265 56.1213C404.671 54.6067 406.228 53.7079 407.742 54.1137C409.257 54.5196 410.156 56.0764 409.75 57.591Z" fill="white" stroke="black" stroke-width="0.5" stroke-linejoin="round"/>
<path d="M408.248 55.7212C407.864 57.1547 406.363 58.0216 404.929 57.6375C404.68 57.5707 404.447 57.4416 404.277 57.3291C404.463 58.3809 405.231 59.2547 406.29 59.5386C407.786 59.9394 409.367 59.0269 409.768 57.5311C410.135 56.1599 409.438 54.7708 408.242 54.2498C408.312 54.7362 408.382 55.2226 408.248 55.7212Z" fill="#D1D1D1"/>
<path d="M409.75 57.5949C409.344 59.1094 407.787 60.0083 406.273 59.6024C404.758 59.1966 403.859 57.6398 404.265 56.1252C404.671 54.6106 406.228 53.7118 407.742 54.1176C409.257 54.5235 410.156 56.0803 409.75 57.5949Z" stroke="black" stroke-width="0.5" stroke-linejoin="round"/>
<path d="M385.43 37.8715L396.532 31.4336L498.75 90.4916L487.648 96.9295L385.43 37.8715Z" fill="white" stroke="black" stroke-width="0.5" stroke-linejoin="round"/>
<path d="M487.656 96.9017L498.758 90.4922L498.757 103.184L487.655 109.593L487.656 96.9017Z" fill="#D4F3E1" stroke="black" stroke-width="0.5" stroke-linejoin="round"/>
<rect x="-0.216492" y="0.124992" width="7.80956" height="49.293" transform="matrix(-0.866007 -0.500033 3.7683e-05 1 482.948 130.673)" fill="#B4F7E7" stroke="black" stroke-width="0.5"/>
<rect x="-0.216492" y="0.124992" width="7.80956" height="33.1547" transform="matrix(-0.866007 -0.500033 3.7683e-05 1 468.201 138.29)" fill="#25E896" stroke="black" stroke-width="0.5"/>
<rect x="-0.216492" y="0.124992" width="7.80956" height="17.6983" transform="matrix(-0.866007 -0.500033 3.7683e-05 1 454.455 145.759)" fill="#38C076" stroke="black" stroke-width="0.5"/>
<path d="M427.494 110.208L427.494 110.208L427.498 110.206C430.211 108.566 432.016 105.027 432.155 100.077C432.295 95.1297 430.764 89.6874 428.172 84.9014C425.579 80.1146 421.939 76.0087 417.885 73.7163L417.883 73.7152C413.887 71.4078 410.216 71.3095 407.505 72.9481L407.504 72.9482L405.275 74.2931C407.716 73.8172 410.547 74.3746 413.499 76.0785C417.667 78.4853 421.373 82.6994 424 87.5586C426.627 92.4184 428.189 97.9472 428.047 103C427.946 106.588 426.984 109.512 425.393 111.535L427.494 110.208Z" fill="#B4F7E7" stroke="black" stroke-width="0.5" stroke-linejoin="round"/>
<path d="M417.8 103.283L422.434 100.486C421.14 101.302 419.344 101.243 417.422 100.133C413.578 97.9136 410.491 92.3208 410.685 87.5467L406.05 90.343C405.899 95.0438 408.943 100.71 412.787 102.929C414.709 104.039 416.505 104.099 417.8 103.283Z" fill="#B4F7E7" stroke="black" stroke-width="0.5" stroke-linejoin="round"/>
<path d="M412.928 82.6855L408.293 85.4818C406.998 86.2977 406.094 88.0229 406.039 90.3367L410.674 87.5404C410.729 85.2267 411.633 83.5014 412.928 82.6855Z" fill="black" stroke="black" stroke-width="0.5" stroke-linejoin="round"/>
<path d="M406.085 93.3016L410.923 90.6079" stroke="black" stroke-width="0.5" stroke-linejoin="round"/>
<path d="M407.063 95.7703L411.698 92.974" stroke="black" stroke-width="0.5" stroke-linejoin="round"/>
<path d="M428.514 102.381C428.796 92.3811 422.328 80.4387 414.091 75.6829C405.854 70.9271 398.962 75.2543 398.68 85.2541C398.467 95.2936 404.935 107.236 413.103 111.952C421.341 116.708 428.301 112.42 428.514 102.381ZM406.574 89.8117C406.726 85.111 409.928 83.0513 413.841 85.3103C417.685 87.5297 420.771 93.1225 420.578 97.8966C420.537 102.564 417.266 104.584 413.422 102.364C409.509 100.105 406.492 94.5522 406.574 89.8117Z" fill="#25E896" stroke="black" stroke-width="0.5" stroke-linejoin="round"/>
<path d="M413.103 111.952C404.935 107.236 398.467 95.2936 398.68 85.2541C398.938 76.1102 404.722 71.7094 412.009 74.6593L412.009 84.5462C408.972 83.7864 406.701 85.871 406.574 89.8117C406.492 94.5522 409.509 100.105 413.422 102.364C417.266 104.584 420.537 102.564 420.578 97.8966L428.514 102.381C428.301 112.42 421.341 116.708 413.103 111.952Z" fill="#F4FC83" stroke="black" stroke-width="0.5" stroke-linejoin="round"/>
<path d="M416.933 280.104L259.107 371.932L100.262 280.104L258.087 188.277L416.933 280.104Z" fill="#D4F3E1"/>
<path d="M195.724 227.776L175.001 215.813C172.145 214.165 167.515 214.165 164.659 215.813V215.813C161.804 217.462 157.174 217.462 154.318 215.814L131.406 202.588" stroke="black" stroke-width="0.5"/>
<path d="M173.167 388.507L86.8622 438.721L0 388.507L86.3045 338.293L173.167 388.507Z" fill="#D4F3E1"/>
<path d="M439.98 248.436L361.067 294.35L282.154 340.264L123.309 248.436L281.134 156.609L439.98 248.436Z" fill="#F1FFF7" stroke="black" stroke-width="0.5" stroke-linejoin="round"/>
<path d="M439.981 248.617L439.917 265.739L439.854 282.861L360.939 328.453L282.024 374.045L282.023 356.923L282.023 339.801L361.002 294.209L439.981 248.617Z" fill="#F1FFF7"/>
<path d="M361.002 294.209L282.023 339.801L282.023 356.923M361.002 294.209L439.981 248.617L439.917 265.739M361.002 294.209L360.939 328.453M360.939 328.453L439.854 282.861L439.917 265.739M360.939 328.453L282.024 374.045L282.023 356.923M282.023 356.923L439.917 265.739" stroke="black" stroke-width="0.5" stroke-linejoin="round"/>
<path d="M282.018 339.562V356.866V374.17L123.305 282.987V265.683V248.379L282.018 339.562Z" fill="#D4F3E1"/>
<path d="M282.018 356.866V339.562L123.305 248.379V265.683M282.018 356.866V374.17L123.305 282.987V265.683M282.018 356.866L123.305 265.683" stroke="black" stroke-width="0.5" stroke-linejoin="round"/>
<path d="M195.389 368.406L109.085 418.62L22.2227 368.406L108.527 318.191L195.389 368.406Z" fill="#F1FFF7" stroke="black" stroke-width="0.5" stroke-linejoin="round"/>
<path d="M195.388 368.504L195.319 387.23L109.012 437.092L109.012 418.366L195.388 368.504Z" fill="#F1FFF7" stroke="black" stroke-width="0.5" stroke-linejoin="round"/>
<path d="M109.013 418.237V437.162L22.2227 387.3V368.375L109.013 418.237Z" fill="#D4F3E1" stroke="black" stroke-width="0.5" stroke-linejoin="round"/>
<path d="M373.931 252.412L282.14 305.754L189.691 252.412L281.533 199.07L373.931 252.412Z" fill="#D4F3E1"/>
<path fill-rule="evenodd" clip-rule="evenodd" d="M187.336 141.57V250.925L282.029 196.291L187.336 141.57Z" fill="#25E896"/>
<path fill-rule="evenodd" clip-rule="evenodd" d="M282.027 196.205L376.72 141.571L282.027 86.9375V196.205Z" fill="#B4F7E7"/>
<path fill-rule="evenodd" clip-rule="evenodd" d="M282.029 86.9375L187.336 141.571L282.029 196.205V86.9375Z" fill="#25E896"/>
<path fill-rule="evenodd" clip-rule="evenodd" d="M304.199 183.462L376.724 225.354V141.57L304.199 183.462Z" fill="#38C076"/>
<path fill-rule="evenodd" clip-rule="evenodd" d="M187.336 250.924L282.029 305.558V196.203L187.336 250.924Z" fill="#003032"/>
<path fill-rule="evenodd" clip-rule="evenodd" d="M376.634 141.571L282.029 86.9375L187.336 141.571L282.029 196.205L376.634 141.571Z" stroke="black" stroke-width="0.5" stroke-linejoin="round"/>
<path fill-rule="evenodd" clip-rule="evenodd" d="M376.637 141.574L304.199 183.466L376.724 225.358V141.574H376.637Z" stroke="black" stroke-width="0.5" stroke-linejoin="round"/>
<path fill-rule="evenodd" clip-rule="evenodd" d="M281.941 196.208L187.336 141.574V250.929L282.029 305.563V196.208H281.941Z" stroke="black" stroke-width="0.5" stroke-linejoin="round"/>
<path d="M191.8 303.279L193.656 302.207C194.54 301.696 195.766 301.761 197.099 302.518C199.798 304.039 201.969 307.801 201.95 310.92C201.952 312.492 201.381 313.594 200.482 314.112L198.691 315.219C199.59 314.7 200.084 313.56 200.094 311.992C200.113 308.873 197.941 305.111 195.242 303.589C193.903 302.837 192.684 302.768 191.8 303.279Z" fill="#CCF2DD" stroke="black" stroke-width="0.5" stroke-linejoin="round"/>
<path d="M191.848 303.262C189.936 304.358 189.921 307.922 191.814 311.222C193.707 314.522 196.791 316.309 198.703 315.212C200.614 314.115 200.63 310.551 198.737 307.251C196.844 303.951 193.76 302.165 191.848 303.262Z" fill="#F1FFF7" stroke="black" stroke-width="0.5" stroke-linejoin="round"/>
<path d="M191.848 303.261C189.936 304.357 189.921 307.921 191.814 311.221C193.706 314.521 196.79 316.307 198.702 315.211C200.614 314.114 200.629 310.55 198.737 307.25C196.844 303.95 193.76 302.164 191.848 303.261Z" fill="#D4F3E1"/>
<path d="M191.848 303.262C189.936 304.358 189.921 307.922 191.814 311.222C193.707 314.522 196.791 316.309 198.703 315.212C200.614 314.115 200.63 310.551 198.737 307.251C196.844 303.951 193.76 302.165 191.848 303.262Z" stroke="black" stroke-width="0.5" stroke-linejoin="round"/>
<path d="M404.806 283.173L402.949 282.101C402.065 281.591 400.84 281.656 399.507 282.412C396.808 283.934 394.636 287.696 394.656 290.815C394.654 292.386 395.225 293.488 396.123 294.007L397.914 295.113C397.016 294.595 396.521 293.455 396.512 291.886C396.492 288.767 398.664 285.006 401.363 283.484C402.703 282.731 403.922 282.663 404.806 283.173Z" fill="#CCF2DD" stroke="black" stroke-width="0.5" stroke-linejoin="round"/>
<path d="M404.757 283.156C406.669 284.253 406.684 287.817 404.792 291.117C402.899 294.417 399.815 296.203 397.903 295.107C395.991 294.01 395.976 290.446 397.869 287.146C399.761 283.846 402.846 282.06 404.757 283.156Z" fill="#F1FFF7" stroke="black" stroke-width="0.5" stroke-linejoin="round"/>
<path d="M404.762 283.155C406.673 284.252 406.689 287.816 404.796 291.116C402.903 294.416 399.819 296.202 397.907 295.105C395.995 294.009 395.98 290.445 397.873 287.145C399.766 283.845 402.85 282.059 404.762 283.155Z" fill="#FAFFFC"/>
<path d="M404.757 283.156C406.669 284.253 406.684 287.817 404.792 291.117C402.899 294.417 399.815 296.203 397.903 295.107C395.991 294.01 395.976 290.446 397.869 287.146C399.761 283.846 402.846 282.06 404.757 283.156Z" stroke="black" stroke-width="0.5" stroke-linejoin="round"/>
<path d="M324.071 329.947L322.215 328.875C321.331 328.364 320.105 328.429 318.772 329.186C316.074 330.707 313.902 334.469 313.921 337.588C313.919 339.16 314.49 340.262 315.389 340.78L317.18 341.887C316.281 341.368 315.787 340.228 315.778 338.66C315.758 335.541 317.93 331.779 320.629 330.257C321.969 329.505 323.187 329.436 324.071 329.947Z" fill="#CCF2DD" stroke="black" stroke-width="0.5" stroke-linejoin="round"/>
<path d="M324.023 329.93C325.935 331.026 325.95 334.59 324.057 337.89C322.164 341.19 319.08 342.977 317.169 341.88C315.257 340.783 315.241 337.219 317.134 333.919C319.027 330.619 322.111 328.833 324.023 329.93Z" fill="#F1FFF7" stroke="black" stroke-width="0.5" stroke-linejoin="round"/>
<path d="M324.027 329.929C325.939 331.025 325.954 334.589 324.061 337.889C322.169 341.189 319.085 342.975 317.173 341.879C315.261 340.782 315.246 337.218 317.138 333.918C319.031 330.618 322.115 328.832 324.027 329.929Z" fill="#FAFFFC"/>
<path d="M324.023 329.93C325.935 331.026 325.95 334.59 324.057 337.89C322.164 341.19 319.08 342.977 317.169 341.88C315.257 340.783 315.241 337.219 317.134 333.919C319.027 330.619 322.111 328.833 324.023 329.93Z" stroke="black" stroke-width="0.5" stroke-linejoin="round"/>
<path d="M467.755 333.837L442.979 319.536C441.227 318.524 438.387 318.524 436.635 319.536V319.536C434.883 320.547 432.042 320.547 430.29 319.536L403.153 303.871" stroke="black" stroke-width="0.5"/>
<path d="M387.592 380.269L362.459 365.761C360.904 364.864 358.383 364.864 356.829 365.761V365.761C355.274 366.659 352.753 366.659 351.198 365.762L323.704 349.891" stroke="black" stroke-width="0.5"/>
<path d="M450.555 369.073C429.976 357.1 430.032 337.731 450.768 325.705C471.504 313.678 505.036 313.728 525.615 325.702C546.195 337.676 546.138 357.044 525.402 369.071C504.637 380.988 471.135 381.047 450.555 369.073Z" fill="#D4F3E1"/>
<path d="M461.633 353.487C441.054 341.514 441.11 322.145 461.846 310.119C482.582 298.092 516.114 298.142 536.693 310.116C557.273 322.09 557.216 341.458 536.481 353.485C515.716 365.403 482.213 365.461 461.633 353.487Z" fill="white" stroke="black" stroke-width="0.5" stroke-linejoin="round"/>
<rect width="82.1234" height="9.33698" transform="matrix(-0.866044 0.499967 0.866044 0.499967 517.75 319.578)" fill="#D4F3E1"/>
<path d="M552.17 343.131C552.194 351.053 547.013 358.911 536.557 364.919C515.861 376.877 482.329 376.827 461.709 364.922C451.434 358.99 446.372 351.194 446.377 343.381L446.302 331.633C446.297 339.446 451.467 347.213 461.703 353.214C482.282 365.188 515.814 365.238 536.55 353.211C547.007 347.203 552.228 339.276 552.164 331.423L552.17 343.131Z" fill="#F1FFF7" stroke="black" stroke-width="0.5" stroke-linejoin="round"/>
<path d="M469.081 362.633L440.061 379.517L361.148 425.43" stroke="black" stroke-width="0.5" stroke-linecap="round" stroke-linejoin="round"/>
<path d="M524.827 241.625L525.047 324.386L517.247 328.89L517.027 246.129L524.827 241.625Z" fill="#38C076" stroke="black" stroke-width="0.5" stroke-linejoin="round"/>
<path d="M517.237 328.89L509.51 324.386L509.254 241.625L517.017 246.129L517.237 328.89Z" fill="#18A659" stroke="black" stroke-width="0.5" stroke-linejoin="round"/>
<path d="M517.017 246.137L509.254 241.633L517.054 237.129L524.817 241.633L517.017 246.137Z" fill="#38C076" stroke="black" stroke-width="0.5" stroke-linejoin="round"/>
<path d="M512.408 265.164L512.628 331.592L504.828 336.06L504.645 269.668L512.408 265.164Z" fill="#25E896" stroke="black" stroke-width="0.5" stroke-linejoin="round"/>
<path d="M504.829 336.06L497.066 331.592L496.883 265.164L504.646 269.668L504.829 336.06Z" fill="#1DBD7A" stroke="black" stroke-width="0.5" stroke-linejoin="round"/>
<path d="M504.646 269.676L496.883 265.172L504.683 260.668L512.41 265.172L504.646 269.676Z" fill="#25E896" stroke="black" stroke-width="0.5" stroke-linejoin="round"/>
<path d="M500.034 286.383L500.181 338.786L492.381 343.253L492.234 290.887L500.034 286.383Z" fill="#B4F7E7" stroke="black" stroke-width="0.5" stroke-linejoin="round"/>
<path d="M492.385 343.253L484.658 338.786L484.512 286.383L492.238 290.887L492.385 343.253Z" fill="#7EDBC5" stroke="black" stroke-width="0.5" stroke-linejoin="round"/>
<path d="M492.238 290.89L484.512 286.386L492.275 281.918L500.039 286.386L492.238 290.89Z" fill="#B4F7E7" stroke="black" stroke-width="0.5" stroke-linejoin="round"/>
<path d="M487.609 307.137L487.718 345.954L479.918 350.458L479.809 311.641L487.609 307.137Z" fill="white" stroke="black" stroke-width="0.5" stroke-linejoin="round"/>
<path d="M479.923 350.458L472.196 345.954L472.086 307.137L479.813 311.641L479.923 350.458Z" fill="#F1FFF7" stroke="black" stroke-width="0.5" stroke-linejoin="round"/>
<path d="M479.813 311.637L472.086 307.133L479.886 302.629L487.613 307.133L479.813 311.637Z" fill="white" stroke="black" stroke-width="0.5" stroke-linejoin="round"/>
<path d="M529.87 300.338L550.742 334.441C551.161 335.138 552.045 335.554 553.289 335.517C555.776 335.442 558.736 333.658 559.963 331.494C560.577 330.412 560.622 329.436 560.202 328.739L539.33 294.636C539.75 295.332 539.706 296.309 539.092 297.391C537.864 299.555 534.904 301.339 532.417 301.414C531.174 301.451 530.29 301.035 529.87 300.338Z" fill="#F4FC83" stroke="black" stroke-width="0.5" stroke-miterlimit="10"/>
<path fill-rule="evenodd" clip-rule="evenodd" d="M555.395 335.097C554.687 335.347 553.969 335.497 553.287 335.517C552.043 335.554 551.159 335.138 550.74 334.441L529.881 300.36C530.306 301.043 531.185 301.451 532.415 301.414C533.102 301.393 533.824 301.243 534.536 300.99L555.395 335.097Z" fill="#003032" fill-opacity="0.5"/>
<path d="M530.112 297.572C528.884 299.736 529.934 301.477 532.421 301.402C534.908 301.328 537.868 299.544 539.095 297.379C540.323 295.215 539.273 293.474 536.786 293.549C534.299 293.624 531.339 295.408 530.112 297.572Z" fill="#F4FC83" stroke="black" stroke-width="0.5" stroke-miterlimit="10"/>
<path d="M525.402 286.163L532.677 298.039C532.831 298.295 533.13 298.405 533.53 298.396C534.401 298.394 535.423 297.778 535.831 297.009C536.026 296.659 536.043 296.301 535.889 296.045L528.614 284.169C528.768 284.424 528.726 284.74 528.556 285.133C528.148 285.901 527.126 286.517 526.256 286.519C525.881 286.571 525.556 286.418 525.402 286.163Z" fill="black" stroke="black" stroke-width="0.5" stroke-miterlimit="10"/>
<path d="M525.483 285.236C525.076 286.005 525.409 286.559 526.279 286.557C527.15 286.555 528.172 285.939 528.58 285.17C528.988 284.402 528.654 283.848 527.784 283.85C526.914 283.852 525.891 284.468 525.483 285.236Z" fill="black" stroke="black" stroke-width="0.5" stroke-miterlimit="10"/>
<path d="M504.695 233.925C512.198 220.405 524.692 220.058 532.704 233.225C540.66 246.425 541.059 268.037 533.645 281.58C526.142 295.1 513.648 295.447 505.637 282.28C497.625 269.113 497.193 247.446 504.695 233.925Z" fill="white"/>
<path opacity="0.2" d="M504.695 233.925C512.198 220.405 524.692 220.058 532.704 233.225C540.66 246.425 541.059 268.037 533.645 281.58C526.142 295.1 513.648 295.447 505.637 282.28C497.625 269.113 497.193 247.446 504.695 233.925Z" fill="#25E896"/>
<mask id="mask0" mask-type="alpha" maskUnits="userSpaceOnUse" x="499" y="223" width="40" height="69">
<path d="M504.692 233.925C512.194 220.405 524.688 220.058 532.7 233.225C540.657 246.425 541.055 268.037 533.641 281.58C526.138 295.1 513.645 295.447 505.633 282.28C497.621 269.113 497.189 247.446 504.692 233.925Z" fill="white"/>
</mask>
<g mask="url(#mask0)">
<path d="M527.551 239.793L527.841 349.046L517.544 354.993L517.254 245.739L527.551 239.793Z" fill="#38C076" stroke="black" stroke-width="0.5" stroke-linejoin="round"/>
<path d="M517.531 354.993L507.331 349.046L506.992 239.793L517.241 245.739L517.531 354.993Z" fill="#18A659" stroke="black" stroke-width="0.5" stroke-linejoin="round"/>
<path d="M517.241 245.748L506.992 239.802L517.289 233.855L527.538 239.802L517.241 245.748Z" fill="#38C076" stroke="black" stroke-width="0.5" stroke-linejoin="round"/>
<path d="M511.151 270.879L511.441 358.572L501.144 364.47L500.902 276.825L511.151 270.879Z" fill="#25E896" stroke="black" stroke-width="0.5" stroke-linejoin="round"/>
<path d="M501.143 364.466L490.894 358.568L490.652 270.875L500.901 276.821L501.143 364.466Z" fill="#1DBD7A" stroke="black" stroke-width="0.5" stroke-linejoin="round"/>
<path d="M500.901 276.834L490.652 270.888L500.949 264.941L511.149 270.888L500.901 276.834Z" fill="#25E896" stroke="black" stroke-width="0.5" stroke-linejoin="round"/>
</g>
<path d="M519.605 292.157C524.77 292.068 529.838 288.56 533.656 281.722C541.148 268.057 540.793 246.267 532.714 232.989C528.736 226.389 523.598 223.134 518.523 223.244L510.049 223.361C515.125 223.251 520.262 226.506 524.24 233.106C532.319 246.384 532.674 268.174 525.182 281.839C521.398 288.732 516.296 292.185 511.132 292.274C513.686 292.246 517.051 292.184 519.605 292.157Z" fill="#B5F4FD" stroke="black" stroke-width="0.5" stroke-miterlimit="10"/>
<path d="M518.511 223.241L510.037 223.358C504.873 223.446 499.804 226.955 495.986 233.793L504.46 233.676C508.278 226.838 513.347 223.329 518.511 223.241Z" fill="white" stroke="black" stroke-width="0.5" stroke-miterlimit="10"/>
<path d="M511.161 292.326L519.601 292.154C514.526 292.264 509.388 289.009 505.41 282.409C497.331 269.131 496.977 247.341 504.468 233.676L495.994 233.793C488.469 247.402 488.857 269.248 496.936 282.526C500.97 289.092 506.107 292.347 511.161 292.326Z" fill="white" stroke="black" stroke-width="0.5" stroke-miterlimit="10"/>
<path opacity="0.2" fill-rule="evenodd" clip-rule="evenodd" d="M109.502 333.012L41.4998 372.272L55.0013 380.067L40.7728 394.894L58.6636 415.923L87.7839 398.994L109.502 411.532L177.543 372.272L109.502 333.012Z" fill="#38C076"/>
<path d="M110.262 324.99L169.554 290.758L109.9 256.306L110.262 324.99Z" fill="white" stroke="black" stroke-width="0.826667"/>
<path fill-rule="evenodd" clip-rule="evenodd" d="M109.53 251.668L176.781 290.511L109.53 329.316V251.668Z" fill="#D8D8D8" stroke="black" stroke-width="0.5" stroke-linejoin="round"/>
<path fill-rule="evenodd" clip-rule="evenodd" d="M42.3161 290.511L109.53 251.668L176.781 290.511L109.53 329.316L42.3161 290.511Z" stroke="black" stroke-width="0.5" stroke-linejoin="round"/>
<path fill-rule="evenodd" clip-rule="evenodd" d="M109.568 329.313L176.781 290.508V368.156L109.53 406.999V329.351L109.568 329.313Z" stroke="black" stroke-width="0.5" stroke-linejoin="round"/>
<path fill-rule="evenodd" clip-rule="evenodd" d="M42.3177 290.516L109.531 329.32V329.359V350.951V407.006L42.2796 368.163V312.717V290.516H42.3177Z" fill="#D8D8D8" stroke="black" stroke-width="0.5" stroke-linejoin="round"/>
<path fill-rule="evenodd" clip-rule="evenodd" d="M42.3177 290.516L109.531 329.321V329.359V350.951V407.006L42.2796 368.163V312.717V290.516H42.3177Z" stroke="black" stroke-width="0.5" stroke-linejoin="round"/>
<path d="M42.3451 290.542L109.525 251.719L176.742 290.542L109.525 329.327L42.3451 290.542Z" fill="white" stroke="black" stroke-width="0.5" stroke-linejoin="round"/>
<path d="M170.254 290.721L109.357 255.55L48.8281 290.496L109.725 325.667L170.254 290.721Z" fill="white"/>
<path d="M170.252 290.723L109.354 255.552L109.723 325.669L170.252 290.723Z" fill="#D8D8D8"/>
<path d="M170.509 290.743L109.367 255.451L48.6133 290.492L109.755 325.784L170.509 290.743Z" stroke="black" stroke-width="0.5" stroke-linejoin="round"/>
<mask id="path-122-outside-1" maskUnits="userSpaceOnUse" x="111.977" y="282.27" width="49" height="36" fill="black">
<rect fill="white" x="111.977" y="282.27" width="49" height="36"/>
<path fill-rule="evenodd" clip-rule="evenodd" d="M124.761 317.743L159.977 297.411C155.981 290.991 149.941 285.977 142.683 283.27C137.734 287.791 132.79 292.309 127.847 296.827C122.903 301.347 117.959 305.866 113.009 310.388C117.445 312.043 121.424 314.566 124.761 317.743Z"/>
</mask>
<path fill-rule="evenodd" clip-rule="evenodd" d="M124.761 317.743L159.977 297.411C155.981 290.991 149.941 285.977 142.683 283.27C137.734 287.791 132.79 292.309 127.847 296.827C122.903 301.347 117.959 305.866 113.009 310.388C117.445 312.043 121.424 314.566 124.761 317.743Z" fill="white"/>
<path d="M124.761 317.743L125.011 318.176C124.818 318.287 124.576 318.258 124.416 318.106L124.761 317.743ZM159.977 297.411L160.401 297.147C160.473 297.262 160.494 297.401 160.462 297.533C160.429 297.664 160.344 297.777 160.227 297.844L159.977 297.411ZM142.683 283.27L142.345 282.9C142.484 282.774 142.682 282.735 142.857 282.801L142.683 283.27ZM127.847 296.827L127.51 296.458L127.847 296.827ZM113.009 310.388L112.834 310.857C112.671 310.796 112.551 310.654 112.518 310.483C112.485 310.312 112.543 310.136 112.672 310.019L113.009 310.388ZM124.511 317.31L159.727 296.978L160.227 297.844L125.011 318.176L124.511 317.31ZM142.857 282.801C150.22 285.548 156.348 290.634 160.401 297.147L159.552 297.676C155.614 291.348 149.661 286.407 142.508 283.738L142.857 282.801ZM127.51 296.458C132.453 291.94 137.396 287.422 142.345 282.9L143.02 283.639C138.071 288.16 133.128 292.678 128.185 297.196L127.51 296.458ZM112.672 310.019C117.622 305.497 122.566 300.978 127.51 296.458L128.185 297.196C123.24 301.716 118.296 306.235 113.346 310.757L112.672 310.019ZM124.416 318.106C121.128 314.974 117.206 312.487 112.834 310.857L113.184 309.92C117.684 311.598 121.721 314.158 125.105 317.381L124.416 318.106Z" fill="black" mask="url(#path-122-outside-1)"/>
<path opacity="0.5" fill-rule="evenodd" clip-rule="evenodd" d="M48.3131 333.688L50.2716 322.629L104.379 353.708L100.999 370.957C99.2944 379.657 96.3599 387.978 92.3462 395.698L48.3131 370.265V333.688Z" fill="#CCCCCC"/>
<path fill-rule="evenodd" clip-rule="evenodd" d="M43.9684 318.642L43.9047 315.582L104.305 350.389L104.371 353.546L43.9684 318.642Z" fill="black"/>
<path d="M43.9047 315.582L43.6547 315.587C43.6529 315.497 43.6997 315.413 43.7774 315.367C43.855 315.321 43.9513 315.32 44.0295 315.365L43.9047 315.582ZM43.9684 318.642L43.8434 318.859C43.7677 318.815 43.7203 318.735 43.7185 318.647L43.9684 318.642ZM104.305 350.389L104.43 350.173C104.506 350.216 104.553 350.296 104.555 350.384L104.305 350.389ZM104.371 353.546L104.621 353.54C104.623 353.631 104.576 353.715 104.498 353.761C104.421 353.807 104.324 353.807 104.246 353.762L104.371 353.546ZM44.1546 315.577L44.2184 318.637L43.7185 318.647L43.6547 315.587L44.1546 315.577ZM104.181 350.606L43.7799 315.799L44.0295 315.365L104.43 350.173L104.181 350.606ZM104.555 350.384L104.621 353.54L104.121 353.551L104.055 350.394L104.555 350.384ZM44.0935 318.426L104.496 353.329L104.246 353.762L43.8434 318.859L44.0935 318.426Z" fill="black"/>
<path d="M47.5739 318.984L36.2834 355.388C31.0723 372.19 21.3209 387.226 8.10519 398.837L57.2068 427.617C71.1735 417.191 81.8472 402.967 87.9551 386.643L101.504 350.432L47.5739 318.984Z" fill="white"/>
<path d="M47.5739 318.984L47.3351 318.91C47.3577 318.838 47.4122 318.779 47.4833 318.751C47.5543 318.724 47.634 318.73 47.6998 318.768L47.5739 318.984ZM101.504 350.432L101.63 350.216C101.735 350.278 101.781 350.406 101.738 350.52L101.504 350.432ZM8.23161 398.621L57.3332 427.402L57.0803 427.833L7.97878 399.052L8.23161 398.621ZM101.378 350.648L47.448 319.2L47.6998 318.768L101.63 350.216L101.378 350.648ZM47.8127 319.058L36.5222 355.462L36.0446 355.314L47.3351 318.91L47.8127 319.058ZM87.721 386.556L101.27 350.345L101.738 350.52L88.1893 386.731L87.721 386.556ZM57.0572 427.417C70.9856 417.019 81.6298 402.835 87.721 386.556L88.1893 386.731C82.0645 403.1 71.3615 417.362 57.3563 427.818L57.0572 427.417ZM36.5222 355.462C31.2974 372.308 21.5205 387.383 8.2702 399.024L7.94019 398.649C21.1213 387.068 30.8472 372.072 36.0446 355.314L36.5222 355.462Z" fill="black"/>
<path opacity="0.1" d="M46.1162 323.529L47.9075 318.957L101.453 349.846L99.5939 354.849L46.1162 323.529Z" fill="black"/>
<path d="M62.647 347.762L72.7806 353.64L87.1133 361.926" fill="#B5F4FD"/>
<path d="M62.647 347.762L72.7806 353.64L87.1133 361.926" stroke="black" stroke-width="0.5" stroke-linejoin="round"/>
<path d="M47.2949 309.43L107.793 344.483" stroke="black" stroke-width="0.5" stroke-linecap="round" stroke-linejoin="round"/>
<path d="M50.5354 351.801L63.9163 359.527L82.8398 370.444" fill="#B5F4FD"/>
<path d="M50.5354 351.801L63.9163 359.527L82.8398 370.444" stroke="black" stroke-width="0.5" stroke-linejoin="round"/>
<path fill-rule="evenodd" clip-rule="evenodd" d="M80.1172 385.856L40.2556 362.797L40.1702 363.073C36.1979 375.923 28.7471 387.423 18.6428 396.3L57.4543 419.132C67.3554 410.578 74.9474 399.673 79.5325 387.419L80.1172 385.856Z" fill="#B5F4FD"/>
<path d="M80.1172 385.856L80.2424 385.64C80.3481 385.701 80.3941 385.829 80.3513 385.944L80.1172 385.856ZM40.2556 362.797L40.0167 362.723C40.0392 362.65 40.0935 362.592 40.1644 362.564C40.2352 362.536 40.3149 362.542 40.3807 362.58L40.2556 362.797ZM40.1702 363.073L40.409 363.147V363.147L40.1702 363.073ZM18.6428 396.3L18.516 396.516C18.4469 396.475 18.4015 396.404 18.3939 396.324C18.3863 396.244 18.4175 396.166 18.4778 396.113L18.6428 396.3ZM57.4543 419.132L57.6178 419.321C57.5367 419.391 57.4199 419.402 57.3276 419.347L57.4543 419.132ZM79.5325 387.419L79.2984 387.331H79.2984L79.5325 387.419ZM79.992 386.073L40.1304 363.013L40.3807 362.58L80.2424 385.64L79.992 386.073ZM40.4944 362.871L40.409 363.147L39.9314 362.999L40.0167 362.723L40.4944 362.871ZM40.409 363.147C36.4231 376.041 28.9468 387.581 18.8078 396.488L18.4778 396.113C28.5475 387.266 35.9727 375.805 39.9314 362.999L40.409 363.147ZM18.7695 396.085L57.5811 418.916L57.3276 419.347L18.516 396.516L18.7695 396.085ZM57.2909 418.943C67.1602 410.417 74.7279 399.546 79.2984 387.331L79.7667 387.506C75.1668 399.8 67.5505 410.74 57.6178 419.321L57.2909 418.943ZM79.2984 387.331L79.883 385.769L80.3513 385.944L79.7667 387.506L79.2984 387.331Z" fill="black"/>
<path d="M53.7266 370.587L53.8517 370.37C53.9578 370.431 54.0038 370.561 53.9603 370.675L53.7266 370.587ZM31.5016 403.834L31.673 404.016C31.5922 404.092 31.4709 404.106 31.3752 404.05L31.5016 403.834ZM18.6415 396.296L18.5151 396.512C18.4459 396.471 18.4003 396.4 18.3927 396.32C18.385 396.24 18.4162 396.161 18.4765 396.108L18.6415 396.296ZM40.169 363.069L40.4078 363.143V363.143L40.169 363.069ZM40.2542 362.793L40.0154 362.719C40.0378 362.646 40.0922 362.588 40.163 362.56C40.2339 362.532 40.3135 362.538 40.3794 362.577L40.2542 362.793ZM53.9603 370.675C49.152 383.334 41.53 394.735 31.673 404.016L31.3302 403.652C41.1321 394.423 48.7115 383.086 53.4929 370.498L53.9603 370.675ZM18.768 396.08L31.628 403.618L31.3752 404.05L18.5151 396.512L18.768 396.08ZM40.4078 363.143C36.4219 376.037 28.9456 387.576 18.8066 396.484L18.4765 396.108C28.5462 387.262 35.9714 375.801 39.9301 362.995L40.4078 363.143ZM40.4931 362.867L40.4078 363.143L39.9301 362.995L40.0154 362.719L40.4931 362.867ZM53.6014 370.803L40.129 363.009L40.3794 362.577L53.8517 370.37L53.6014 370.803Z" fill="black"/>
<path d="M57.3792 418.946L61.2539 389.607L40.219 394.589V363.406" stroke="black" stroke-width="0.5" stroke-linejoin="round"/>
<path d="M66.793 378.145C62.4181 390.715 54.4468 402.474 44.7811 411.846" stroke="black" stroke-width="0.5" stroke-linejoin="round"/>
<path d="M66.6875 409.579L27.5808 386.914" stroke="black" stroke-width="0.5" stroke-linejoin="round"/>
<path d="M74.875 397.601L35.6977 374.938" stroke="black" stroke-width="0.5" stroke-linejoin="round"/>
<path d="M57.2227 418.897L54.1347 401.725L48.4521 382.578L40.3526 363.008" stroke="black" stroke-width="0.5" stroke-linejoin="round"/>
<path d="M54.9497 403.383C55.98 402.766 56.2764 401.554 55.7017 400.673C55.0791 399.765 53.7398 399.585 52.7361 400.155C51.7058 400.772 51.4094 401.984 51.9841 402.866C52.5802 403.821 53.9194 404.001 54.9497 403.383Z" fill="black" stroke="black" stroke-width="0.5" stroke-linejoin="round"/>
<path d="M50.4429 383.006C50.8352 381.871 50.2832 380.752 49.2762 380.447C48.2156 380.151 47.0744 380.875 46.6717 381.956C46.2794 383.092 46.8314 384.21 47.8383 384.516C48.9094 384.865 50.0506 384.142 50.4429 383.006Z" fill="black" stroke="black" stroke-width="0.5" stroke-linejoin="round"/>
<path d="M63.0794 390.109C63.3908 388.949 62.7613 387.872 61.7353 387.638C60.6565 387.418 59.5692 388.22 59.2436 389.327C58.9323 390.487 59.5617 391.564 60.5877 391.799C61.6807 392.071 62.7681 391.269 63.0794 390.109Z" fill="#B5F4FD" stroke="black" stroke-width="0.5" stroke-linejoin="round"/>
<path d="M41.399 395.848C42.4292 395.231 42.7256 394.019 42.1509 393.138C41.5283 392.229 40.1891 392.05 39.1853 392.62C38.155 393.237 37.8586 394.449 38.4333 395.33C39.0294 396.286 40.3687 396.466 41.399 395.848Z" fill="#B5F4FD" stroke="black" stroke-width="0.5" stroke-linejoin="round"/>
<path d="M104.385 350.396V353.538L107.656 344.715L104.385 350.396Z" fill="black" stroke="black" stroke-width="0.5" stroke-linejoin="round"/>
<path d="M107.766 344.523L104.358 350.41L43.9257 315.252L47.2919 309.406" stroke="black" stroke-width="0.5" stroke-linejoin="round"/>
<path fill-rule="evenodd" clip-rule="evenodd" d="M109.532 251.727L42.3529 290.55L109.532 329.335L176.75 290.55L109.532 251.727ZM109.371 255.558L170.268 290.728L109.739 325.674L48.8423 290.504L109.371 255.558Z" fill="white"/>
<path d="M42.3529 290.55L42.2279 290.766C42.1506 290.722 42.1029 290.639 42.1029 290.55C42.1029 290.461 42.1505 290.378 42.2278 290.333L42.3529 290.55ZM109.532 251.727L109.407 251.51C109.485 251.465 109.58 251.465 109.657 251.51L109.532 251.727ZM109.532 329.335L109.657 329.552C109.58 329.596 109.485 329.596 109.407 329.552L109.532 329.335ZM176.75 290.55L176.875 290.333C176.952 290.378 177 290.461 177 290.55C177 290.639 176.952 290.722 176.875 290.766L176.75 290.55ZM170.268 290.728L170.393 290.512C170.47 290.557 170.518 290.639 170.518 290.728C170.518 290.818 170.47 290.9 170.393 290.945L170.268 290.728ZM109.371 255.558L109.246 255.341C109.323 255.297 109.418 255.297 109.496 255.341L109.371 255.558ZM109.739 325.674L109.864 325.891C109.787 325.936 109.692 325.936 109.614 325.891L109.739 325.674ZM48.8423 290.504L48.7172 290.72C48.6399 290.676 48.5923 290.593 48.5923 290.504C48.5923 290.414 48.6399 290.332 48.7173 290.287L48.8423 290.504ZM42.2278 290.333L109.407 251.51L109.658 251.943L42.478 290.766L42.2278 290.333ZM109.407 329.552L42.2279 290.766L42.4779 290.333L109.657 329.119L109.407 329.552ZM176.875 290.766L109.657 329.552L109.407 329.119L176.625 290.333L176.875 290.766ZM109.657 251.51L176.875 290.333L176.625 290.766L109.407 251.943L109.657 251.51ZM170.143 290.945L109.246 255.774L109.496 255.341L170.393 290.512L170.143 290.945ZM109.614 325.458L170.143 290.512L170.393 290.945L109.864 325.891L109.614 325.458ZM48.9673 290.287L109.864 325.458L109.614 325.891L48.7172 290.72L48.9673 290.287ZM109.496 255.774L48.9673 290.72L48.7173 290.287L109.246 255.341L109.496 255.774Z" fill="black"/>
<path d="M99.3126 254.289L77.6463 267.026L86.329 288.848L107.995 276.11L99.3126 254.289Z" fill="white" stroke="black" stroke-width="0.5" stroke-linejoin="round"/>
<path d="M107.385 282.865L95.6953 312.882L57.1258 291.878L68.8653 261.781L107.385 282.865Z" fill="#F4FC83" stroke="black" stroke-width="0.5" stroke-linejoin="round"/>
<path d="M69.1085 267.596L92.99 280.876L94.9893 277.715L106.055 283.772L105.335 287.741L91.0296 310.188L57.2876 291.812L69.1085 267.596Z" fill="#909C00"/>
<path fill-rule="evenodd" clip-rule="evenodd" d="M72.788 267.3L57.1224 291.888L95.6918 312.892L112.079 287.179L114.127 283.965L114.121 283.968L102.098 277.387L99.3184 281.748L72.788 267.3Z" fill="#F4FC83"/>
<path d="M57.1224 291.888L56.9115 291.754C56.8743 291.812 56.863 291.883 56.8803 291.95C56.8976 292.017 56.942 292.074 57.0028 292.108L57.1224 291.888ZM72.788 267.3L72.9076 267.081C72.7921 267.018 72.6478 267.055 72.5772 267.166L72.788 267.3ZM95.6918 312.892L95.5723 313.112C95.6877 313.175 95.832 313.138 95.9027 313.027L95.6918 312.892ZM112.079 287.179L111.868 287.045L112.079 287.179ZM114.127 283.965L114.338 284.099C114.4 284.002 114.388 283.876 114.308 283.793C114.229 283.709 114.104 283.691 114.004 283.747L114.127 283.965ZM114.121 283.968L114.001 284.187C114.077 284.229 114.169 284.228 114.245 284.185L114.121 283.968ZM102.098 277.387L102.218 277.168C102.102 277.105 101.958 277.142 101.887 277.253L102.098 277.387ZM99.3184 281.748L99.1988 281.968C99.3143 282.031 99.4586 281.993 99.5292 281.883L99.3184 281.748ZM57.3332 292.022L72.9988 267.434L72.5772 267.166L56.9115 291.754L57.3332 292.022ZM95.8114 312.673L57.242 291.668L57.0028 292.108L95.5723 313.112L95.8114 312.673ZM111.868 287.045L95.481 312.758L95.9027 313.027L112.29 287.313L111.868 287.045ZM113.916 283.83L111.868 287.045L112.29 287.313L114.338 284.099L113.916 283.83ZM114.245 284.185L114.251 284.182L114.004 283.747L113.998 283.751L114.245 284.185ZM101.978 277.606L114.001 284.187L114.241 283.749L102.218 277.168L101.978 277.606ZM101.887 277.253L99.1076 281.614L99.5292 281.883L102.309 277.521L101.887 277.253ZM99.438 281.529L72.9076 267.081L72.6684 267.52L99.1988 281.968L99.438 281.529Z" fill="black"/>
<path d="M85.2299 300.284L83.6617 302.745L94.1581 308.462L95.7266 306L85.2299 300.284Z" stroke="black" stroke-width="0.5" stroke-linejoin="round"/>
<path d="M71.4548 278.086L89.6562 287.999M74.1741 273.818L87.8256 281.253" stroke="black" stroke-width="0.5" stroke-linejoin="round"/>
<path d="M140.837 250.316L140.837 250.316L140.842 250.318C143.495 251.766 145.365 255.063 145.706 259.779C146.047 264.491 144.816 269.747 142.545 274.422C140.273 279.098 136.973 283.167 133.203 285.524L133.202 285.525C129.487 287.894 125.993 288.141 123.341 286.694L123.341 286.694L121.212 285.534C123.549 285.865 126.208 285.209 128.93 283.474C132.809 281 136.169 276.821 138.472 272.072C140.775 267.322 142.034 261.979 141.685 257.16C141.439 253.769 140.414 251.035 138.832 249.17L140.837 250.316Z" fill="white" stroke="black" stroke-width="0.5" stroke-linejoin="round"/>
<path d="M132.391 257.924L136.931 260.397C135.661 259.673 133.95 259.806 132.162 260.946C128.587 263.225 125.878 268.692 126.263 273.24L121.723 270.767C121.381 266.287 124.047 260.752 127.622 258.472C129.409 257.333 131.121 257.2 132.391 257.924Z" fill="#D1D1D1" stroke="black" stroke-width="0.5" stroke-linejoin="round"/>
<path d="M128.605 277.788L124.065 275.315C122.795 274.591 121.859 272.983 121.71 270.777L126.25 273.25C126.4 275.456 127.336 277.064 128.605 277.788Z" fill="black" stroke="black" stroke-width="0.5" stroke-linejoin="round"/>
<path d="M121.628 267.945L126.168 270.418" stroke="black" stroke-width="0.5" stroke-linejoin="round"/>
<path d="M122.46 265.539L127 268.012" stroke="black" stroke-width="0.5" stroke-linejoin="round"/>
<path d="M142.018 257.834C142.708 267.364 137.038 279.033 129.378 283.918C121.717 288.803 114.959 284.964 114.269 275.433C113.643 265.862 119.312 254.193 126.909 249.349C134.57 244.464 141.392 248.262 142.018 257.834ZM121.61 270.752C121.953 275.231 125.095 277.062 128.734 274.741C132.309 272.462 135.019 266.995 134.633 262.447C134.398 257.995 131.191 256.205 127.617 258.485C123.978 260.805 121.332 266.231 121.61 270.752Z" fill="#F4FC83" stroke="black" stroke-width="0.5" stroke-linejoin="round"/>
<path d="M128.776 274.76L129.416 283.888C121.86 288.707 115.031 284.861 114.388 275.448C113.701 265.968 119.297 254.293 126.854 249.474C134.581 244.642 141.303 248.461 141.946 257.874C141.972 258.334 142.041 258.863 142.003 259.364L142.026 259.54C141.988 260.041 142.014 260.501 142.019 261.07L134.744 264.088C134.782 263.587 134.82 263.086 134.751 262.558C134.367 258.034 131.177 256.254 127.621 258.522C124.065 260.789 121.37 266.227 121.753 270.751C121.987 275.179 125.177 276.96 128.776 274.76Z" fill="#38C076" stroke="black" stroke-width="0.5" stroke-linejoin="round"/>
<path fill-rule="evenodd" clip-rule="evenodd" d="M109.568 329.317L176.781 290.512V330.231V368.16L109.53 407.003V329.355L109.568 329.317Z" fill="white" stroke="black" stroke-width="0.5" stroke-linejoin="round"/>
<path d="M115.779 395.419L170.203 364.008V301.555L115.779 332.966V395.419Z" fill="#25E896"/>
<path d="M115.779 395.414L170.203 364.002L115.779 332.961V395.414Z" fill="#38C076"/>
<path d="M170.203 364.002L115.779 332.961" stroke="black" stroke-width="0.5"/>
<path d="M159.314 365.587L168.227 360.459L132.499 323.227L122.967 328.733L159.314 365.587Z" fill="url(#paint0_linear)"/>
<path d="M168.227 350.577L139.136 319.45L143.472 316.938L168.227 341.802V350.577Z" fill="url(#paint1_linear)"/>
<path d="M115.68 395.577L170.293 364.057V301.387L115.68 332.907V395.577Z" stroke="black" stroke-width="0.5" stroke-linejoin="round"/>
<path opacity="0.1" d="M169.167 363.378V302.147L170.203 301.555V364.007L115.779 395.419V394.198L169.167 363.378Z" fill="black"/>
<path d="M361.954 426.681C344.176 416.337 344.225 399.605 362.138 389.216C380.051 378.826 409.019 378.87 426.797 389.213C444.576 399.557 444.527 416.289 426.613 426.679C408.675 436.974 379.733 437.025 361.954 426.681Z" fill="#D4F3E1"/>
<path d="M370.509 412.478C352.731 402.134 352.78 385.402 370.693 375.013C388.606 364.623 417.574 364.667 435.352 375.01C453.13 385.354 453.081 402.086 435.168 412.476C417.23 422.771 388.287 422.822 370.509 412.478Z" fill="white" stroke="black" stroke-width="0.5" stroke-linejoin="round"/>
<path d="M448.719 403.531C448.739 410.375 444.264 417.164 435.23 422.354C417.351 432.684 388.384 432.64 370.571 422.356C361.695 417.231 357.322 410.497 357.326 403.747L357.261 393.599C357.257 400.348 361.723 407.057 370.566 412.242C388.344 422.585 417.311 422.629 435.225 412.239C444.258 407.049 448.768 400.201 448.713 393.417L448.719 403.531Z" fill="#F1FFF7" stroke="black" stroke-width="0.5" stroke-linejoin="round"/>
<path d="M426.663 349.331C426.663 336.407 416.186 325.93 403.262 325.93" stroke="url(#paint2_linear)" stroke-width="4" stroke-linecap="round" stroke-linejoin="round"/>
<path d="M413.346 403.561C418.875 400.344 418.86 395.139 413.288 391.908C407.717 388.676 398.707 388.69 393.177 391.907C387.647 395.124 387.662 400.329 393.234 403.56C398.814 406.762 407.816 406.778 413.346 403.561Z" fill="#F1FFF7"/>
<path d="M389.203 392.597C389.196 394.687 390.563 396.76 393.321 398.344C398.78 401.498 407.625 401.485 413.064 398.345C415.774 396.78 417.109 394.724 417.108 392.663L417.127 379.335C417.129 381.396 415.765 383.444 413.065 385.027C407.637 388.186 398.792 388.199 393.323 385.027C390.565 383.442 389.188 381.351 389.204 379.28L389.203 392.597Z" fill="#25E896" stroke="black" stroke-width="0.5" stroke-linejoin="round"/>
<path d="M389.203 392.597C389.196 394.687 390.563 396.76 393.321 398.344C395.38 399.534 397.92 400.273 400.578 400.563C398.06 396.486 398.06 391.336 400.578 387.258C397.923 386.965 395.383 386.222 393.323 385.027C390.597 383.461 389.221 381.401 389.204 379.354L389.204 379.28C389.204 379.304 389.204 379.329 389.204 379.354L389.203 392.597Z" fill="#1DC981"/>
<path d="M389.203 388.247C389.197 390.337 390.563 392.41 393.321 393.994C398.78 397.148 407.625 397.135 413.064 393.995C415.774 392.43 417.109 390.374 417.108 388.313L417.128 383.681C417.129 385.742 415.765 387.79 413.065 389.373C407.637 392.532 398.793 392.545 393.323 389.373C390.565 387.788 389.188 385.697 389.205 383.626L389.203 388.247Z" stroke="black" stroke-width="0.5" stroke-linejoin="round"/>
<path d="M389.203 392.597C389.196 394.687 390.563 396.76 393.321 398.344C398.78 401.498 407.625 401.485 413.064 398.345C415.774 396.78 417.109 394.724 417.108 392.663L417.127 379.335C417.129 381.396 415.765 383.444 413.065 385.027C407.637 388.186 398.792 388.199 393.323 385.027C390.565 383.442 389.188 381.351 389.204 379.28L389.203 392.597Z" stroke="black" stroke-width="0.5" stroke-linejoin="round"/>
<path d="M413.166 385.002C418.595 381.844 418.58 376.735 413.11 373.563C407.641 370.391 398.796 370.404 393.368 373.562C387.94 376.721 387.954 381.83 393.424 385.002C398.901 388.145 407.738 388.161 413.166 385.002Z" fill="#B5F4FD" stroke="black" stroke-width="0.5" stroke-linejoin="round"/>
<path d="M417.329 378.909C419.565 374.661 422.966 371.165 426.055 367.49C430.406 362.315 433.027 355.636 433.027 348.346C433.027 331.905 419.7 318.578 403.26 318.578C386.82 318.578 373.492 331.905 373.492 348.346C373.492 355.606 376.092 362.259 380.41 367.426C383.503 371.126 386.917 374.64 389.163 378.907C389.239 379.051 389.274 379.213 389.276 379.375C389.304 381.415 390.658 383.446 393.334 385.004C396.059 386.589 399.643 387.375 403.23 387.366C406.828 387.38 410.426 386.594 413.159 385.004C415.837 383.446 417.19 381.414 417.218 379.373C417.22 379.212 417.254 379.052 417.329 378.909Z" fill="#F4FC83" stroke="black" stroke-width="0.5" stroke-linejoin="round"/>
<path fill-rule="evenodd" clip-rule="evenodd" d="M384.747 325.031C377.889 330.485 373.492 338.901 373.492 348.344C373.492 355.604 376.092 362.257 380.41 367.424C381.058 368.198 381.72 368.965 382.382 369.732C384.882 372.628 387.388 375.531 389.163 378.905C389.239 379.049 389.274 379.211 389.276 379.373C389.304 381.413 390.658 383.444 393.334 385.002C396.059 386.587 399.643 387.373 403.23 387.364C406.828 387.378 410.426 386.592 413.159 385.002C415.837 383.444 417.19 381.412 417.218 379.371C417.22 379.21 417.254 379.05 417.329 378.907C417.874 377.871 418.489 376.88 419.151 375.92C417.351 376.203 415.504 376.35 413.621 376.35C394.669 376.35 379.305 361.437 379.305 343.04C379.305 336.405 381.303 330.224 384.747 325.031Z" fill="url(#paint3_linear)" fill-opacity="0.5"/>
<path d="M410.384 383.398C414.292 381.125 414.281 377.448 410.344 375.164C406.407 372.88 400.04 372.89 396.132 375.164C392.225 377.437 392.236 381.114 396.173 383.398C400.116 385.661 406.477 385.672 410.384 383.398Z" fill="#D8F099" stroke="black" stroke-width="0.5" stroke-linejoin="round"/>
<path d="M417.329 378.909C419.565 374.661 422.966 371.165 426.055 367.49C430.406 362.315 433.027 355.636 433.027 348.346C433.027 331.905 419.7 318.578 403.26 318.578C386.82 318.578 373.492 331.905 373.492 348.346C373.492 355.606 376.092 362.259 380.41 367.426C383.503 371.126 386.917 374.64 389.163 378.907V378.907C389.239 379.051 389.274 379.213 389.276 379.375C389.304 381.415 390.658 383.446 393.334 385.004C396.059 386.589 399.643 387.375 403.23 387.366C406.828 387.38 410.426 386.594 413.159 385.004C415.837 383.446 417.19 381.414 417.218 379.373C417.22 379.212 417.254 379.052 417.329 378.909V378.909Z" stroke="black" stroke-width="0.5" stroke-linejoin="round"/>
<path d="M405.403 380.517C406.575 379.835 406.572 378.732 405.391 378.046C404.209 377.361 402.299 377.364 401.126 378.046C399.954 378.728 399.957 379.832 401.138 380.517C402.322 381.196 404.23 381.199 405.403 380.517Z" fill="black" stroke="black" stroke-width="0.5" stroke-linejoin="round"/>
<path d="M401.795 379.473L390.457 340.758L397.217 354.161C397.706 355.132 399.103 355.097 399.544 354.103L399.79 353.548C400.146 352.743 401.288 352.741 401.648 353.544L401.792 353.866C402.16 354.685 403.367 354.533 403.519 353.647V353.647C403.686 352.673 405.069 352.627 405.3 353.589L405.445 354.191C405.677 355.156 407.001 355.275 407.402 354.368L413.624 340.316L405.148 379.473" stroke="black" stroke-width="0.5"/>
<path d="M156.381 184.807L83.7143 227.086L10.5781 184.807L83.2447 142.527L156.381 184.807Z" fill="#D4F3E1"/>
<path d="M172.42 167.881L99.7533 210.16L26.6172 167.881L99.2838 125.602L172.42 167.881Z" fill="#F1FFF7" stroke="black" stroke-width="0.5" stroke-linejoin="round"/>
<path d="M125.291 185.079C132.774 180.752 136.54 175.06 136.508 169.396L136.26 161.426C136.293 167.089 132.526 172.781 125.044 177.109C110.15 185.744 86.0376 185.695 71.2461 177.095C63.8598 172.83 60.1886 167.228 60.1748 161.635L60.4225 169.606C60.4363 175.198 64.1075 180.801 71.4937 185.065C86.2852 193.665 110.378 193.644 125.291 185.079Z" fill="#C2F6D9" stroke="black" stroke-width="0.5" stroke-linejoin="round"/>
<path d="M60.1372 162.52C60.1722 174.698 77.2445 184.521 98.2692 184.461C119.294 184.4 136.309 174.479 136.274 162.301C136.239 150.122 119.167 140.299 98.1423 140.36C77.1176 140.42 60.1021 150.342 60.1372 162.52Z" fill="white" stroke="black" stroke-width="0.5" stroke-linejoin="round"/>
<path d="M68.3205 162.495C68.348 172.055 81.7508 179.767 98.2564 179.72C114.762 179.672 128.12 171.883 128.093 162.323C128.065 152.762 114.662 145.05 98.1568 145.098C81.6512 145.145 68.293 152.934 68.3205 162.495Z" fill="white" stroke="black" stroke-width="0.5" stroke-linejoin="round"/>
<path d="M68.7457 165.388C68.4688 164.447 68.3232 163.479 68.3204 162.491C68.2928 152.93 81.651 145.141 98.1567 145.094C114.662 145.046 128.065 152.758 128.093 162.319C128.096 163.327 127.95 164.315 127.667 165.276C125.263 157.102 112.957 150.905 98.1567 150.948C83.3906 150.99 71.1435 157.229 68.7457 165.388Z" fill="#C2F6D9" stroke="black" stroke-width="0.5" stroke-linejoin="round"/>
<path fill-rule="evenodd" clip-rule="evenodd" d="M114.084 173.155C114.266 173.285 114.265 173.465 114.068 173.583L109.146 176.402C108.95 176.52 108.621 176.511 108.428 176.399L106.17 175.096C104.897 175.518 103.549 175.847 102.169 176.053L102.147 177.919C102.141 178.019 102.077 178.085 101.994 178.14C101.899 178.214 101.778 178.246 101.628 178.237L94.6604 178.229C94.3701 178.241 94.1496 178.088 94.1393 177.928L94.1503 176.081C92.7747 175.879 91.4162 175.558 90.1327 175.151L87.8576 176.462C87.6609 176.58 87.332 176.571 87.139 176.459L82.229 173.599C82.0472 173.468 82.048 173.288 82.2447 173.17L84.5391 171.87C83.8044 171.137 83.2716 170.367 82.9103 169.566L79.6958 169.563C79.4055 169.575 79.185 169.422 79.1747 169.262L79.1871 165.229C79.1931 165.13 79.257 165.064 79.3401 165.009C79.4344 164.935 79.5562 164.902 79.7054 164.911L82.92 164.914C83.2966 164.128 83.8336 163.332 84.5859 162.608L82.328 161.305C82.1461 161.174 82.1469 160.994 82.3437 160.876L87.2875 158.018C87.4842 157.9 87.8131 157.91 88.0061 158.021L90.264 159.325C91.5374 158.902 92.8849 158.574 94.2651 158.367L94.2872 156.502C94.2932 156.402 94.357 156.336 94.4402 156.281C94.5345 156.207 94.6563 156.174 94.8055 156.183L101.774 156.192C102.064 156.18 102.284 156.333 102.295 156.493L102.284 158.339C103.659 158.542 104.987 158.871 106.26 159.297L108.535 157.986C108.731 157.868 109.06 157.877 109.253 157.989L114.163 160.849C114.345 160.98 114.344 161.16 114.148 161.278L111.873 162.589C112.607 163.322 113.14 164.093 113.501 164.893L116.716 164.896C117.006 164.884 117.227 165.037 117.237 165.197L117.225 169.23C117.219 169.329 117.155 169.395 117.072 169.45C116.977 169.524 116.855 169.557 116.706 169.548L113.492 169.545C113.115 170.331 112.578 171.127 111.826 171.851L114.084 173.155ZM91.7519 162.825C95.4071 160.715 101.333 160.714 104.989 162.824C108.644 164.934 108.644 168.356 104.989 170.466C101.334 172.576 95.4075 172.577 91.7522 170.467C88.0969 168.356 88.0968 164.935 91.7519 162.825Z" fill="#C2F6D9"/>
<path d="M115.592 166.291L112.721 166.179L113.104 165.958L112.574 165.482L110.828 164.313L111.838 162.999L112.462 162.196L115.868 162.321L115.911 166.107L115.592 166.291Z" fill="#009BBD"/>
<path d="M101.982 151.734L102.008 155.812L102.01 154.059L102.003 149.991L101.982 151.734Z" fill="#B5F4FD" stroke="black" stroke-width="0.5" stroke-linejoin="round"/>
<path d="M83.2249 154.278L83.2326 158.346C83.2374 158.421 83.2707 158.488 83.3789 158.551L83.3712 154.483C83.2734 154.402 83.2117 154.343 83.2249 154.278Z" fill="#B5F4FD" stroke="black" stroke-width="0.5" stroke-linejoin="round"/>
<path d="M113.244 158.335L113.237 154.268C113.241 154.343 113.2 154.415 113.094 154.474L113.101 158.541C113.208 158.483 113.249 158.41 113.244 158.335Z" fill="#B5F4FD" stroke="black" stroke-width="0.5" stroke-linejoin="round"/>
<path d="M83.367 154.447L83.3823 158.544L85.4922 159.762L85.4664 155.683L83.367 154.447Z" fill="#009BBD" stroke="black" stroke-width="0.5" stroke-linejoin="round"/>
<path d="M110.982 155.679L110.979 159.765L113.115 158.522L113.108 154.454L110.982 155.679Z" fill="#009BBD" stroke="black" stroke-width="0.5" stroke-linejoin="round"/>
<path d="M115.969 161.905L115.977 165.973L115.988 162.204L115.98 158.137L115.969 161.905Z" fill="#B5F4FD" stroke="black" stroke-width="0.5" stroke-linejoin="round"/>
<path fill-rule="evenodd" clip-rule="evenodd" d="M80.9052 162.19L80.9052 162.161L83.9089 162.164L83.9062 166.25L80.9221 166.247L80.9222 166.259C80.6509 166.27 80.4449 166.128 80.4353 165.978L80.4199 161.885C80.4219 162.049 80.6325 162.171 80.9052 162.19Z" fill="#009BBD"/>
<path d="M80.9052 162.161L80.6552 162.161C80.6552 162.094 80.6816 162.031 80.7286 161.984C80.7755 161.937 80.8391 161.911 80.9054 161.911L80.9052 162.161ZM80.9052 162.19L81.1552 162.19C81.1551 162.26 81.1263 162.326 81.0757 162.373C81.025 162.42 80.9571 162.444 80.888 162.44L80.9052 162.19ZM83.9089 162.164L83.9092 161.914C84.0472 161.914 84.159 162.026 84.1589 162.164L83.9089 162.164ZM83.9062 166.25L84.1562 166.25C84.1562 166.316 84.1298 166.38 84.0829 166.427C84.0359 166.474 83.9723 166.5 83.906 166.5L83.9062 166.25ZM80.9221 166.247L80.6721 166.247C80.672 166.181 80.6983 166.117 80.7453 166.07C80.7922 166.023 80.856 165.997 80.9224 165.997L80.9221 166.247ZM80.9222 166.259L81.1722 166.258C81.1724 166.392 81.0669 166.503 80.9329 166.509L80.9222 166.259ZM80.4353 165.978L80.1858 165.994C80.1855 165.989 80.1853 165.984 80.1853 165.979L80.4353 165.978ZM80.4199 161.885L80.1699 161.885C80.1694 161.748 80.2803 161.636 80.418 161.635C80.5556 161.633 80.6683 161.744 80.6699 161.882L80.4199 161.885ZM81.1552 162.161L81.1552 162.19L80.6552 162.19L80.6552 162.161L81.1552 162.161ZM83.9087 162.414L80.9049 162.411L80.9054 161.911L83.9092 161.914L83.9087 162.414ZM83.6562 166.25L83.6589 162.164L84.1589 162.164L84.1562 166.25L83.6562 166.25ZM80.9224 165.997L83.9065 166L83.906 166.5L80.9219 166.497L80.9224 165.997ZM80.6722 166.259L80.6721 166.247L81.1721 166.246L81.1722 166.258L80.6722 166.259ZM80.6847 165.962C80.6825 165.926 80.6644 165.937 80.7111 165.966C80.7515 165.99 80.8208 166.013 80.9114 166.009L80.9329 166.509C80.7523 166.516 80.5829 166.473 80.4501 166.392C80.3236 166.315 80.1977 166.179 80.1858 165.994L80.6847 165.962ZM80.6699 161.884L80.6853 165.977L80.1853 165.979L80.1699 161.885L80.6699 161.884ZM80.888 162.44C80.7224 162.428 80.5598 162.385 80.43 162.305C80.3024 162.226 80.1723 162.088 80.17 161.888L80.6699 161.882C80.6695 161.846 80.6457 161.851 80.6921 161.879C80.7363 161.906 80.8153 161.934 80.9224 161.941L80.888 162.44Z" fill="black"/>
<path d="M115.96 161.889C115.96 161.883 115.96 161.894 115.96 161.889V161.889Z" fill="#009BBD"/>
<path d="M115.96 161.889L115.967 165.94C115.962 166.033 115.902 166.095 115.824 166.146C115.736 166.216 115.623 166.246 115.483 166.238L112.498 166.245C112.146 166.979 111.643 167.724 110.941 168.4L110.933 164.332C111.618 163.646 112.12 162.901 112.472 162.167L115.476 162.17C115.615 162.178 115.729 162.148 115.817 162.078C115.898 162.014 115.956 161.956 115.96 161.889ZM115.96 161.889C115.96 161.894 115.96 161.883 115.96 161.889Z" stroke="black" stroke-width="0.5" stroke-linejoin="round"/>
<path d="M115.962 161.891C115.962 161.885 115.962 161.896 115.962 161.891V161.891Z" fill="#009BBD"/>
<path d="M115.962 161.891L115.97 165.942C115.964 166.035 115.904 166.097 115.827 166.148C115.739 166.217 115.625 166.248 115.485 166.24L112.5 166.247L110.935 164.334C111.62 163.648 112.474 162.169 112.474 162.169L115.478 162.172C115.617 162.18 115.819 162.08 115.819 162.08C115.819 162.08 115.962 161.885 115.962 161.891ZM115.962 161.891C115.962 161.896 115.962 161.885 115.962 161.891Z" stroke="black" stroke-width="0.5" stroke-linejoin="round"/>
<path d="M83.9078 162.174L83.9155 166.241C84.2531 166.989 84.7509 167.71 85.4375 168.395L85.4298 164.327C84.7328 163.66 84.235 162.94 83.9078 162.174Z" fill="#009BBD"/>
<path d="M90.7091 167.385L90.7168 171.453C91.9057 171.851 93.1466 172.158 94.432 172.347L94.4243 168.28C93.1389 168.09 91.8695 167.79 90.7091 167.385Z" fill="#009BBD" stroke="black" stroke-width="0.5" stroke-linejoin="round"/>
<path d="M101.888 168.295L101.896 172.363C103.186 172.17 104.445 171.863 105.635 171.468L105.627 167.4C104.437 167.795 103.188 168.084 101.888 168.295Z" fill="#009BBD" stroke="black" stroke-width="0.5" stroke-linejoin="round"/>
<path d="M88.5794 168.616L88.5767 172.702L90.713 171.459L90.7053 167.391L88.5794 168.616Z" fill="#009BBD" stroke="black" stroke-width="0.5" stroke-linejoin="round"/>
<path d="M105.629 167.405L105.636 171.473L107.746 172.691L107.738 168.624L105.629 167.405Z" fill="#009BBD" stroke="black" stroke-width="0.5" stroke-linejoin="round"/>
<path d="M88.569 168.632C88.3956 168.724 88.0778 168.733 87.8795 168.618L83.3095 165.956C83.2013 165.893 83.1679 165.826 83.163 165.751L83.1708 169.819C83.1756 169.894 83.209 169.961 83.3172 170.024L87.9052 172.697C88.0856 172.801 88.3929 172.81 88.5767 172.7L88.569 168.632Z" fill="#009BBD" stroke="black" stroke-width="0.5" stroke-linejoin="round"/>
<path d="M113.196 169.824L113.189 165.756C113.185 165.824 113.109 165.887 113.028 165.952L108.408 168.622C108.224 168.733 107.917 168.724 107.737 168.619L107.744 172.687C107.925 172.791 108.232 172.801 108.416 172.69L113.054 170.03C113.131 169.979 113.201 169.899 113.196 169.824Z" fill="#B5F4FD" stroke="black" stroke-width="0.5" stroke-linejoin="round"/>
<path d="M101.884 170.023L101.91 174.102L101.902 172.366L101.895 168.298L101.884 170.023Z" fill="#B5F4FD" stroke="black" stroke-width="0.5" stroke-linejoin="round"/>
<path d="M101.735 170.226C101.657 170.278 101.525 170.298 101.404 170.3L94.8825 170.309C94.6216 170.303 94.4052 170.178 94.3956 170.028L94.4033 174.096C94.4129 174.246 94.6189 174.389 94.89 174.377L101.412 174.368C101.551 174.376 101.665 174.346 101.753 174.276C101.831 174.225 101.89 174.163 101.896 174.07L101.878 170.036C101.878 170.031 101.878 170.026 101.878 170.02L101.878 170.036C101.874 170.104 101.817 170.162 101.735 170.226Z" fill="#B5F4FD"/>
<path d="M101.878 170.036C101.874 170.104 101.817 170.162 101.735 170.226C101.657 170.278 101.525 170.298 101.404 170.3L94.8825 170.309C94.6216 170.303 94.4052 170.178 94.3956 170.028L94.4033 174.096C94.4129 174.246 94.6189 174.389 94.89 174.377L101.412 174.368C101.551 174.376 101.665 174.346 101.753 174.276C101.831 174.225 101.89 174.163 101.896 174.07L101.878 170.036ZM101.878 170.036L101.878 170.02C101.878 170.026 101.878 170.031 101.878 170.036Z" stroke="black" stroke-width="0.5" stroke-linejoin="round"/>
<path fill-rule="evenodd" clip-rule="evenodd" d="M92.3608 159.549C95.7763 157.577 101.314 157.577 104.73 159.549C105.689 160.102 106.379 160.753 106.799 161.446C107.6 159.754 106.85 157.868 104.548 156.539C101.132 154.568 95.5943 154.568 92.1788 156.54C89.7226 157.958 89.0328 160.01 90.1095 161.783C90.4969 160.965 91.2474 160.192 92.3608 159.549Z" fill="#009BBD"/>
<path d="M104.73 159.549L104.605 159.765L104.73 159.549ZM92.3608 159.549L92.4858 159.766L92.3608 159.549ZM106.799 161.446L107.025 161.553C106.986 161.636 106.904 161.69 106.812 161.695C106.72 161.7 106.633 161.654 106.585 161.575L106.799 161.446ZM104.548 156.539L104.423 156.756L104.548 156.539ZM92.1788 156.54L92.0538 156.323L92.0538 156.323L92.1788 156.54ZM90.1095 161.783L90.3354 161.89C90.2961 161.973 90.2142 162.028 90.1224 162.033C90.0305 162.038 89.9435 161.992 89.8958 161.913L90.1095 161.783ZM104.605 159.765C102.944 158.806 100.751 158.32 98.5452 158.32C96.3391 158.32 94.1466 158.807 92.4858 159.766L92.2358 159.333C93.9905 158.32 96.2746 157.82 98.5451 157.82C100.816 157.82 103.1 158.319 104.855 159.332L104.605 159.765ZM106.585 161.575C106.192 160.926 105.537 160.303 104.605 159.765L104.855 159.332C105.841 159.902 106.566 160.579 107.013 161.316L106.585 161.575ZM106.573 161.339C106.943 160.558 106.954 159.739 106.608 158.957C106.26 158.17 105.541 157.402 104.423 156.756L104.673 156.323C105.856 157.006 106.663 157.845 107.066 158.755C107.471 159.671 107.456 160.641 107.025 161.553L106.573 161.339ZM104.423 156.756C102.762 155.797 100.569 155.311 98.3631 155.311C96.1571 155.311 93.9646 155.797 92.3038 156.756L92.0538 156.323C93.8085 155.31 96.0926 154.811 98.3631 154.811C100.634 154.811 102.918 155.31 104.673 156.323L104.423 156.756ZM92.3038 156.756C91.1097 157.446 90.372 158.274 90.0532 159.117C89.737 159.953 89.8225 160.829 90.3232 161.654L89.8958 161.913C89.3199 160.964 89.2119 159.928 89.5855 158.94C89.9565 157.959 90.7917 157.052 92.0538 156.323L92.3038 156.756ZM92.4858 159.766C91.4036 160.39 90.6956 161.13 90.3354 161.89L89.8835 161.676C90.2983 160.8 91.0912 159.993 92.2358 159.333L92.4858 159.766Z" fill="black"/>
<path fill-rule="evenodd" clip-rule="evenodd" d="M113.046 165.549C113.216 165.671 113.215 165.839 113.031 165.95L108.432 168.584C108.248 168.694 107.941 168.685 107.761 168.581L105.651 167.363C104.461 167.758 103.202 168.065 101.912 168.258L101.891 170.001C101.886 170.094 101.826 170.156 101.749 170.207C101.66 170.277 101.547 170.307 101.407 170.299L94.896 170.29C94.6248 170.302 94.4188 170.159 94.4091 170.009L94.4194 168.284C93.134 168.095 91.8646 167.795 90.6653 167.415L88.5394 168.64C88.3556 168.75 88.0483 168.741 87.8679 168.637L83.2799 165.964C83.11 165.842 83.1107 165.674 83.2946 165.564L85.4385 164.349C84.752 163.664 84.2541 162.944 83.9165 162.196L80.9128 162.193C80.6416 162.205 80.4356 162.062 80.4259 161.912L80.4375 158.144C80.4431 158.051 80.5028 157.989 80.5805 157.938C80.6686 157.869 80.7824 157.838 80.9218 157.846L83.9256 157.849C84.2775 157.115 84.7793 156.371 85.4822 155.695L83.3724 154.476C83.2025 154.354 83.2032 154.186 83.3871 154.076L88.0066 151.406C88.1905 151.295 88.4978 151.304 88.6781 151.409L90.788 152.627C91.9778 152.232 93.237 151.925 94.5267 151.732L94.5474 149.988C94.5529 149.895 94.6126 149.834 94.6903 149.782C94.7785 149.713 94.8922 149.682 95.0317 149.691L101.543 149.699C101.814 149.687 102.02 149.83 102.03 149.98L102.019 151.706C103.305 151.895 104.546 152.202 105.735 152.6L107.861 151.375C108.044 151.265 108.352 151.274 108.532 151.378L113.12 154.051C113.29 154.173 113.289 154.341 113.105 154.451L110.979 155.676C111.666 156.361 112.164 157.082 112.501 157.829L115.505 157.833C115.776 157.821 115.982 157.964 115.992 158.114L115.981 161.882C115.975 161.975 115.915 162.037 115.838 162.088C115.749 162.157 115.636 162.188 115.496 162.179L112.492 162.176C112.141 162.911 111.639 163.655 110.936 164.331L113.046 165.549ZM92.1811 156.535C95.5965 154.563 101.134 154.563 104.55 156.534C107.965 158.506 107.966 161.703 104.55 163.675C101.135 165.647 95.597 165.647 92.1814 163.675C88.7658 161.704 88.7656 158.507 92.1811 156.535Z" fill="#B5F4FD"/>
<path d="M113.031 165.95L113.16 166.164L113.155 166.166L113.031 165.95ZM113.046 165.549L113.171 165.333C113.178 165.337 113.185 165.341 113.192 165.346L113.046 165.549ZM108.432 168.584L108.304 168.37L108.308 168.367L108.432 168.584ZM105.651 167.363L105.572 167.126C105.64 167.103 105.714 167.111 105.776 167.146L105.651 167.363ZM101.912 168.258L101.662 168.255C101.664 168.132 101.754 168.029 101.875 168.011L101.912 168.258ZM101.891 170.001L102.142 170.004L102.141 170.016L101.891 170.001ZM101.749 170.207L101.594 170.011C101.599 170.007 101.605 170.003 101.611 169.999L101.749 170.207ZM101.407 170.299L101.407 170.049C101.412 170.049 101.417 170.049 101.422 170.049L101.407 170.299ZM94.896 170.29L94.8852 170.04L94.8964 170.04L94.896 170.29ZM94.4091 170.009L94.1597 170.025C94.1593 170.02 94.1591 170.014 94.1592 170.008L94.4091 170.009ZM94.4194 168.284L94.4558 168.037C94.5791 168.055 94.6701 168.161 94.6694 168.286L94.4194 168.284ZM90.6653 167.415L90.5405 167.198C90.6013 167.163 90.674 167.156 90.7408 167.177L90.6653 167.415ZM88.5394 168.64L88.4109 168.426L88.4146 168.424L88.5394 168.64ZM87.8679 168.637L87.7429 168.854L87.7421 168.853L87.8679 168.637ZM83.2799 165.964L83.1541 166.18C83.1472 166.176 83.1405 166.172 83.134 166.167L83.2799 165.964ZM83.2946 165.564L83.166 165.35L83.1714 165.346L83.2946 165.564ZM85.4385 164.349L85.6151 164.172C85.6704 164.227 85.6968 164.305 85.6863 164.383C85.6758 164.46 85.6298 164.528 85.5618 164.567L85.4385 164.349ZM83.9165 162.196L83.9168 161.946C84.015 161.946 84.104 162.004 84.1444 162.093L83.9165 162.196ZM80.9128 162.193L80.902 161.943L80.913 161.943L80.9128 162.193ZM80.4259 161.912L80.1764 161.928C80.1761 161.923 80.1759 161.917 80.1759 161.911L80.4259 161.912ZM80.4375 158.144L80.1875 158.143C80.1875 158.138 80.1877 158.134 80.188 158.129L80.4375 158.144ZM80.5805 157.938L80.7351 158.134C80.7296 158.139 80.724 158.143 80.7182 158.147L80.5805 157.938ZM80.9218 157.846L80.9216 158.096C80.9167 158.096 80.9117 158.096 80.9068 158.096L80.9218 157.846ZM83.9256 157.849L84.151 157.957C84.1094 158.044 84.0216 158.1 83.9253 158.099L83.9256 157.849ZM85.4822 155.695L85.6072 155.478C85.6753 155.517 85.7209 155.586 85.7304 155.664C85.7399 155.742 85.7122 155.82 85.6556 155.875L85.4822 155.695ZM83.3724 154.476L83.2474 154.693C83.2402 154.689 83.2332 154.684 83.2265 154.679L83.3724 154.476ZM83.3871 154.076L83.2585 153.862L83.262 153.86L83.3871 154.076ZM88.0066 151.406L88.1352 151.62L88.1318 151.622L88.0066 151.406ZM90.788 152.627L90.8668 152.864C90.799 152.886 90.7249 152.879 90.663 152.843L90.788 152.627ZM94.5267 151.732L94.7767 151.735C94.7752 151.857 94.685 151.961 94.5637 151.979L94.5267 151.732ZM94.5474 149.988L94.2971 149.985L94.2978 149.973L94.5474 149.988ZM94.6903 149.782L94.8449 149.979C94.8395 149.983 94.8339 149.987 94.8281 149.991L94.6903 149.782ZM95.0317 149.691L95.0313 149.941C95.0265 149.941 95.0216 149.941 95.0167 149.94L95.0317 149.691ZM101.543 149.699L101.554 149.949L101.542 149.949L101.543 149.699ZM102.03 149.98L102.279 149.964C102.28 149.97 102.28 149.976 102.28 149.982L102.03 149.98ZM102.019 151.706L101.983 151.953C101.86 151.935 101.769 151.829 101.769 151.704L102.019 151.706ZM105.735 152.6L105.859 152.817C105.797 152.853 105.723 152.86 105.655 152.837L105.735 152.6ZM107.861 151.375L107.989 151.59L107.985 151.592L107.861 151.375ZM108.532 151.378L108.657 151.162L108.658 151.162L108.532 151.378ZM113.12 154.051L113.246 153.835C113.253 153.839 113.26 153.843 113.266 153.848L113.12 154.051ZM113.105 154.451L113.234 154.666L113.23 154.668L113.105 154.451ZM110.979 155.676L110.803 155.853C110.748 155.798 110.721 155.721 110.732 155.644C110.742 155.567 110.787 155.499 110.855 155.46L110.979 155.676ZM112.501 157.829L112.501 158.079C112.403 158.079 112.314 158.022 112.274 157.932L112.501 157.829ZM115.505 157.833L115.516 158.083L115.505 158.083L115.505 157.833ZM115.992 158.114L116.242 158.098C116.242 158.103 116.242 158.109 116.242 158.114L115.992 158.114ZM115.981 161.882L116.231 161.883C116.23 161.887 116.23 161.892 116.23 161.897L115.981 161.882ZM115.838 162.088L115.683 161.891C115.688 161.887 115.694 161.883 115.7 161.879L115.838 162.088ZM115.496 162.179L115.496 161.929C115.501 161.929 115.506 161.929 115.511 161.93L115.496 162.179ZM112.492 162.176L112.267 162.068C112.309 161.981 112.396 161.926 112.493 161.926L112.492 162.176ZM110.936 164.331L110.811 164.548C110.743 164.508 110.697 164.439 110.688 164.361C110.678 164.283 110.706 164.205 110.762 164.151L110.936 164.331ZM104.55 156.534L104.675 156.318L104.55 156.534ZM92.1811 156.535L92.3061 156.751L92.1811 156.535ZM104.55 163.675L104.425 163.458L104.55 163.675ZM112.902 165.735C112.925 165.721 112.931 165.713 112.93 165.714C112.929 165.715 112.927 165.718 112.925 165.725C112.923 165.731 112.921 165.739 112.921 165.747C112.921 165.756 112.922 165.763 112.924 165.769C112.925 165.774 112.927 165.777 112.927 165.777C112.927 165.777 112.926 165.775 112.921 165.77C112.917 165.766 112.91 165.76 112.9 165.752L113.192 165.346C113.316 165.436 113.426 165.578 113.421 165.761C113.416 165.946 113.296 166.082 113.16 166.164L112.902 165.735ZM108.308 168.367L112.907 165.733L113.155 166.166L108.556 168.801L108.308 168.367ZM107.886 168.365C107.93 168.39 108.007 168.412 108.098 168.413C108.19 168.414 108.263 168.394 108.304 168.37L108.561 168.799C108.418 168.884 108.245 168.915 108.092 168.913C107.938 168.911 107.772 168.876 107.636 168.798L107.886 168.365ZM105.776 167.146L107.886 168.365L107.636 168.798L105.526 167.58L105.776 167.146ZM101.875 168.011C103.15 167.82 104.395 167.516 105.572 167.126L105.73 167.6C104.527 168 103.253 168.31 101.949 168.505L101.875 168.011ZM101.641 169.998L101.662 168.255L102.162 168.261L102.141 170.004L101.641 169.998ZM101.611 169.999C101.623 169.99 101.632 169.983 101.639 169.978C101.645 169.973 101.647 169.97 101.648 169.969C101.648 169.969 101.646 169.971 101.645 169.975C101.643 169.98 101.642 169.984 101.642 169.986L102.141 170.016C102.128 170.228 101.986 170.35 101.886 170.416L101.611 169.999ZM101.422 170.049C101.516 170.055 101.565 170.034 101.594 170.011L101.903 170.404C101.756 170.52 101.577 170.559 101.392 170.548L101.422 170.049ZM94.8964 170.04L101.407 170.049L101.407 170.549L94.8957 170.54L94.8964 170.04ZM94.6586 169.993C94.6563 169.958 94.6383 169.969 94.685 169.997C94.7254 170.022 94.7947 170.045 94.8853 170.041L94.9068 170.54C94.7261 170.548 94.5568 170.505 94.424 170.424C94.2975 170.346 94.1716 170.211 94.1597 170.025L94.6586 169.993ZM94.6694 168.286L94.6591 170.011L94.1592 170.008L94.1694 168.283L94.6694 168.286ZM90.7408 167.177C91.9281 167.553 93.1844 167.85 94.4558 168.037L94.383 168.531C93.0837 168.34 91.8012 168.037 90.5899 167.653L90.7408 167.177ZM88.4146 168.424L90.5405 167.198L90.7902 167.632L88.6643 168.857L88.4146 168.424ZM87.9929 168.421C88.0373 168.446 88.1146 168.468 88.2054 168.469C88.2967 168.47 88.37 168.45 88.4109 168.426L88.668 168.855C88.525 168.94 88.3527 168.971 88.1993 168.969C88.0454 168.967 87.8789 168.932 87.7429 168.854L87.9929 168.421ZM83.4058 165.748L87.9938 168.421L87.7421 168.853L83.1541 166.18L83.4058 165.748ZM83.4232 165.778C83.4004 165.792 83.3945 165.801 83.3955 165.8C83.3961 165.799 83.3984 165.795 83.4005 165.789C83.4027 165.783 83.4043 165.775 83.4045 165.766C83.4047 165.758 83.4036 165.751 83.402 165.745C83.4004 165.739 83.3987 165.737 83.3986 165.736C83.3985 165.736 83.3999 165.739 83.4043 165.743C83.4087 165.748 83.4156 165.754 83.4258 165.761L83.134 166.167C83.0094 166.078 82.8997 165.936 82.9047 165.753C82.9097 165.567 83.03 165.431 83.166 165.35L83.4232 165.778ZM85.5618 164.567L83.4178 165.782L83.1714 165.346L85.3153 164.132L85.5618 164.567ZM84.1444 162.093C84.4685 162.811 84.9482 163.507 85.6151 164.172L85.262 164.526C84.5558 163.822 84.0398 163.077 83.6887 162.299L84.1444 162.093ZM80.913 161.943L83.9168 161.946L83.9163 162.446L80.9125 162.443L80.913 161.943ZM80.6754 161.896C80.6731 161.86 80.655 161.871 80.7018 161.9C80.7422 161.925 80.8114 161.947 80.902 161.943L80.9236 162.443C80.7429 162.451 80.5736 162.408 80.4407 162.326C80.3143 162.249 80.1884 162.114 80.1764 161.928L80.6754 161.896ZM80.6875 158.145L80.6759 161.913L80.1759 161.911L80.1875 158.143L80.6875 158.145ZM80.7182 158.147C80.7055 158.155 80.6965 158.162 80.6903 158.167C80.684 158.173 80.6816 158.176 80.6813 158.176C80.6811 158.176 80.6828 158.174 80.6845 158.17C80.6863 158.165 80.6869 158.161 80.6871 158.159L80.188 158.129C80.2007 157.917 80.3427 157.795 80.4427 157.729L80.7182 158.147ZM80.9068 158.096C80.8129 158.09 80.7641 158.112 80.7351 158.134L80.4259 157.741C80.5731 157.626 80.7518 157.586 80.9368 157.597L80.9068 158.096ZM83.9253 158.099L80.9216 158.096L80.9221 157.596L83.9258 157.599L83.9253 158.099ZM85.6556 155.875C84.9762 156.528 84.4913 157.247 84.151 157.957L83.7001 157.741C84.0637 156.983 84.5824 156.213 85.3089 155.514L85.6556 155.875ZM83.4974 154.26L85.6072 155.478L85.3572 155.911L83.2474 154.693L83.4974 154.26ZM83.5156 154.291C83.4928 154.304 83.4869 154.313 83.4879 154.312C83.4886 154.311 83.4908 154.307 83.493 154.301C83.4952 154.295 83.4967 154.287 83.497 154.279C83.4972 154.27 83.496 154.263 83.4944 154.257C83.4929 154.252 83.4912 154.249 83.491 154.249C83.491 154.248 83.4924 154.251 83.4968 154.255C83.5011 154.26 83.508 154.266 83.5183 154.273L83.2265 154.679C83.1019 154.59 82.9922 154.448 82.9971 154.265C83.0022 154.08 83.1225 153.943 83.2585 153.862L83.5156 154.291ZM88.1318 151.622L83.5122 154.293L83.262 153.86L87.8815 151.189L88.1318 151.622ZM88.5531 151.625C88.5088 151.599 88.4315 151.578 88.3406 151.577C88.2493 151.576 88.1761 151.595 88.1352 151.62L87.8781 151.191C88.0211 151.105 88.1934 151.075 88.3468 151.077C88.5007 151.079 88.6672 151.114 88.8031 151.192L88.5531 151.625ZM90.663 152.843L88.5531 151.625L88.8031 151.192L90.913 152.41L90.663 152.843ZM94.5637 151.979C93.2887 152.17 92.0435 152.473 90.8668 152.864L90.7092 152.389C91.9122 151.99 93.1854 151.68 94.4897 151.484L94.5637 151.979ZM94.7973 149.991L94.7767 151.735L94.2767 151.729L94.2974 149.985L94.7973 149.991ZM94.8281 149.991C94.8154 149.999 94.8064 150.006 94.8001 150.012C94.7939 150.017 94.7915 150.02 94.7911 150.021C94.791 150.021 94.7926 150.019 94.7943 150.014C94.7961 150.01 94.7968 150.006 94.7969 150.003L94.2978 149.973C94.3105 149.761 94.4526 149.64 94.5526 149.574L94.8281 149.991ZM95.0167 149.94C94.9228 149.935 94.8739 149.956 94.8449 149.979L94.5357 149.586C94.683 149.47 94.8617 149.43 95.0466 149.441L95.0167 149.94ZM101.542 149.949L95.0313 149.941L95.032 149.441L101.543 149.449L101.542 149.949ZM101.78 149.996C101.783 150.032 101.801 150.021 101.754 149.992C101.713 149.968 101.644 149.945 101.554 149.949L101.532 149.449C101.713 149.442 101.882 149.485 102.015 149.566C102.141 149.643 102.267 149.779 102.279 149.964L101.78 149.996ZM101.769 151.704L101.78 149.979L102.28 149.982L102.269 151.707L101.769 151.704ZM105.655 152.837C104.479 152.444 103.253 152.14 101.983 151.953L102.056 151.458C103.357 151.65 104.612 151.961 105.814 152.363L105.655 152.837ZM107.985 151.592L105.859 152.817L105.61 152.384L107.736 151.159L107.985 151.592ZM108.407 151.595C108.363 151.569 108.285 151.547 108.195 151.546C108.103 151.545 108.03 151.565 107.989 151.59L107.732 151.161C107.875 151.075 108.047 151.044 108.201 151.046C108.355 151.048 108.521 151.083 108.657 151.162L108.407 151.595ZM112.994 154.267L108.406 151.594L108.658 151.162L113.246 153.835L112.994 154.267ZM112.977 154.237C113 154.223 113.006 154.214 113.005 154.216C113.004 154.217 113.002 154.22 112.999 154.226C112.997 154.233 112.996 154.24 112.995 154.249C112.995 154.257 112.996 154.265 112.998 154.27C113 154.276 113.001 154.279 113.001 154.279C113.002 154.279 113 154.277 112.996 154.272C112.991 154.268 112.984 154.261 112.974 154.254L113.266 153.848C113.391 153.938 113.5 154.08 113.495 154.262C113.49 154.448 113.37 154.584 113.234 154.666L112.977 154.237ZM110.855 155.46L112.981 154.235L113.23 154.668L111.104 155.893L110.855 155.46ZM112.274 157.932C111.949 157.214 111.47 156.519 110.803 155.853L111.156 155.499C111.862 156.204 112.378 156.949 112.729 157.727L112.274 157.932ZM115.505 158.083L112.501 158.079L112.502 157.579L115.505 157.583L115.505 158.083ZM115.743 158.13C115.745 158.165 115.763 158.154 115.716 158.126C115.676 158.101 115.607 158.078 115.516 158.082L115.494 157.583C115.675 157.575 115.844 157.618 115.977 157.699C116.104 157.777 116.23 157.912 116.242 158.098L115.743 158.13ZM115.731 161.881L115.742 158.113L116.242 158.114L116.231 161.883L115.731 161.881ZM115.7 161.879C115.713 161.871 115.721 161.864 115.728 161.858C115.734 161.853 115.736 161.85 115.737 161.85C115.737 161.849 115.735 161.852 115.734 161.856C115.732 161.861 115.731 161.865 115.731 161.867L116.23 161.897C116.217 162.109 116.075 162.23 115.975 162.296L115.7 161.879ZM115.511 161.93C115.605 161.935 115.654 161.914 115.683 161.891L115.992 162.284C115.845 162.4 115.666 162.44 115.481 162.429L115.511 161.93ZM112.493 161.926L115.496 161.929L115.496 162.429L112.492 162.426L112.493 161.926ZM110.762 164.151C111.442 163.497 111.927 162.778 112.267 162.068L112.718 162.284C112.354 163.043 111.836 163.812 111.109 164.511L110.762 164.151ZM112.921 165.766L110.811 164.548L111.061 164.115L113.171 165.333L112.921 165.766ZM104.425 156.751C102.764 155.792 100.571 155.306 98.3654 155.306C96.1594 155.306 93.9669 155.792 92.3061 156.751L92.0561 156.318C93.8108 155.305 96.0948 154.806 98.3654 154.806C100.636 154.806 102.92 155.305 104.675 156.318L104.425 156.751ZM104.425 163.458C106.087 162.499 106.862 161.276 106.862 160.104C106.862 158.933 106.087 157.71 104.425 156.751L104.675 156.318C106.428 157.33 107.362 158.691 107.362 160.104C107.362 161.517 106.428 162.879 104.675 163.891L104.425 163.458ZM92.3063 163.459C93.9672 164.417 96.1597 164.904 98.3658 164.904C100.572 164.904 102.764 164.417 104.425 163.458L104.675 163.891C102.92 164.904 100.636 165.404 98.3658 165.404C96.0952 165.404 93.8111 164.905 92.0564 163.892L92.3063 163.459ZM92.3061 156.751C90.6439 157.711 89.8695 158.934 89.8696 160.105C89.8696 161.276 90.6441 162.499 92.3063 163.459L92.0564 163.892C90.303 162.88 89.3696 161.518 89.3696 160.105C89.3695 158.692 90.3028 157.331 92.0561 156.318L92.3061 156.751Z" fill="black"/>
<path d="M105.147 159.801L105.171 156.841M102.829 158.787L102.853 155.828" stroke="black" stroke-width="0.5"/>
<path d="M172.419 167.965L172.36 183.732L99.6914 225.715L99.6914 209.948L172.419 167.965Z" fill="#F1FFF7" stroke="black" stroke-width="0.5" stroke-linejoin="round"/>
<path d="M99.6925 209.835V225.769L26.6172 183.786V167.852L99.6925 209.835Z" fill="#D4F3E1" stroke="black" stroke-width="0.5" stroke-linejoin="round"/>
<path d="M118.747 91.0098L112.905 94.4258C115.325 93.0094 118.58 93.2593 122.252 95.3422L128.094 91.9263C124.422 89.7601 121.083 89.5935 118.747 91.0098Z" fill="#D4F3E1" stroke="black" stroke-width="0.5" stroke-linejoin="round"/>
<path d="M153.971 113.584L159.812 110.168L128.099 91.9219L122.173 95.3378L153.971 113.584Z" fill="#D4F3E1" stroke="black" stroke-width="0.5" stroke-linejoin="round"/>
<path d="M163.233 144.66L169.075 141.244C171.412 139.828 172.914 136.912 172.914 132.83C172.914 124.498 167.072 114.417 159.811 110.168L153.969 113.584C161.23 117.75 167.072 127.914 167.072 136.246C166.989 140.328 165.57 143.244 163.233 144.66Z" fill="#D4F3E1" stroke="black" stroke-width="0.5" stroke-linejoin="round"/>
<path d="M122.174 95.3364C114.914 91.1706 108.988 94.5032 108.988 102.835C108.988 111.166 114.83 121.247 122.091 125.496L153.888 143.826C161.149 147.991 166.991 144.659 167.074 136.327C167.074 127.996 161.232 117.915 153.971 113.666L122.174 95.3364Z" fill="white" stroke="black" stroke-width="0.5" stroke-linejoin="round"/>
<path d="M153.725 121.735C150.491 119.868 148.379 121.206 148.379 125.436C148.379 130.688 151.614 134.056 153.932 135.395C155.675 136.401 157.329 136.538 158.525 135.779L157.033 133.195C156.236 133.553 155.32 133.519 153.962 132.735C152.16 131.694 150.949 129.784 150.949 128.113L158.983 132.752C158.968 132.726 160.371 125.573 153.725 121.735ZM150.949 125.828C150.949 123.577 152.426 123.355 154.006 124.268C155.586 125.18 157.018 127.116 157.019 129.333L150.949 125.828Z" fill="black"/>
<path d="M124.146 110.133C123.112 109.382 120.144 107.805 120.144 106.236C120.144 105.315 121.399 105.528 122.536 106.185C123.747 106.867 124.929 107.941 125.933 109.272L127.484 108.394C127.026 107.703 125.327 105.341 122.536 103.729C119.996 102.263 117.707 102.476 117.707 104.931C117.707 108.7 121.65 110.977 123.29 112.111C124.294 112.81 125.195 113.399 125.195 114.524C125.195 115.581 123.807 115.36 122.729 114.737C120.971 113.722 119.923 112.452 118.889 110.781L117.235 111.753C118.667 114.183 120.602 116.17 122.596 117.304C125.549 119.009 127.691 118.745 127.691 115.726C127.691 113.731 126.524 111.864 124.146 110.133" fill="black"/>
<path d="M132.626 109.555C130.986 108.592 129.377 108.31 128.092 108.745L129.643 111.431C130.514 111.184 131.562 111.397 132.64 112.037C134.605 113.171 135.195 114.416 135.195 115.439L135.196 116.718L131.695 114.697C130.396 113.947 127.856 112.855 127.856 116.146C127.856 118.568 129.052 121.032 131.917 122.686C133.35 123.514 134.443 123.616 135.196 123.011L135.196 124.324L137.736 125.79L137.736 117.11C137.736 114.075 136.126 111.576 132.626 109.555ZM135.21 119.591C135.211 122.098 133.66 121.066 132.286 120.273C130.913 119.48 129.997 118.525 129.997 117.4C129.997 116.36 130.721 116.419 132.227 117.289L135.21 119.012L135.21 119.591Z" fill="black"/>
<path d="M145.572 117.3L145.572 118.749C144.701 117.104 143.667 115.927 142.264 115.117C139.857 113.727 138.616 114.562 138.203 115.995C138.041 116.515 137.996 117.666 137.996 119.405C137.996 121.043 138.011 122.552 138.499 123.976C139.193 125.98 140.862 127.847 142.265 128.657C143.623 129.442 144.775 129.493 145.573 128.896L145.573 129.714C145.573 130.669 145.292 131.138 144.761 131.326C144.229 131.514 143.564 131.437 142.634 130.9C141.792 130.413 140.995 129.424 140.537 128.785L138.824 129.774C139.931 131.454 141.246 132.912 142.678 133.756C144.052 134.583 145.396 134.847 146.474 134.464C147.493 134.131 148.142 132.75 148.142 130.908L148.142 118.783L145.572 117.3ZM145.572 123.78C145.572 124.786 145.558 125.528 145.484 125.877C145.322 126.619 144.495 127.25 142.988 126.38C142.604 126.159 140.684 124.794 140.463 122.739C140.404 122.074 140.374 121.409 140.389 120.787C140.389 119.286 140.448 118.843 140.507 118.502C140.64 117.828 141.496 117.197 142.988 118.058C144.804 119.107 145.395 120.881 145.484 121.495C145.558 122.271 145.587 123.038 145.572 123.78" fill="black"/>
<path d="M137.555 134.078L137.555 147.834" stroke="black" stroke-width="0.5"/>
<path d="M60.3086 137.246V148.357" stroke="black" stroke-width="0.5"/>
<path d="M42.1778 125.231C42.2195 137.711 51.0267 142.762 61.921 136.501C72.8152 130.24 81.5807 115.005 81.5389 102.524C81.4972 90.0439 72.69 84.9933 61.7957 91.2543C50.9432 97.5571 42.136 112.751 42.1778 125.231Z" fill="white" stroke="black" stroke-width="0.5" stroke-linejoin="round"/>
<path d="M69.3499 86.1147C65.7602 84.0277 60.8348 84.3199 55.3669 87.4921C44.5144 93.7532 35.7489 108.988 35.7489 121.469C35.7489 127.688 37.9611 132.029 41.5091 134.074L47.9371 137.831C44.3892 135.786 42.2186 131.403 42.1769 125.184C42.1352 112.703 50.9006 97.4681 61.7949 91.207C67.2629 88.0348 72.2334 87.8165 75.7813 89.9035L69.3499 86.1147Z" fill="#D4F3E1" stroke="black" stroke-width="0.5" stroke-linejoin="round"/>
<path d="M61.8531 135.291C72.0959 129.377 80.3995 114.994 80.4 103.167C80.4004 91.3389 72.0975 86.5452 61.8547 92.4594C51.6119 98.3736 43.3082 112.756 43.3078 124.584C43.3073 136.411 51.6103 141.205 61.8531 135.291Z" fill="white"/>
<path d="M48.4643 121.612C48.4641 126.212 51.6931 128.076 55.6764 125.776L56.7067 125.181L56.7068 122.088L55.6765 122.682C53.1765 124.126 51.1431 122.952 51.1432 120.065C51.1433 117.179 53.1769 113.656 55.6769 112.213L58.1526 110.783L58.152 126.964C58.1519 127.784 58.4342 128.408 58.9366 128.698C59.439 128.988 60.1202 128.921 60.8307 128.51L60.8316 106.143L55.677 109.119C51.6937 111.419 48.4645 117.013 48.4643 121.612ZM68.0452 101.979L67.0149 102.574L67.0147 105.668L68.0451 105.073C70.5443 103.63 72.5785 104.804 72.5784 107.69C72.5783 110.576 70.5439 114.099 68.0447 115.542L65.5677 116.973L65.5684 100.792C65.5684 99.9715 65.2861 99.3477 64.7837 99.0577C64.2814 98.7676 63.6001 98.8351 62.8896 99.2454L62.8887 121.613L68.0446 118.636C72.0274 116.336 75.2571 110.743 75.2573 106.143C75.2574 101.544 72.0281 99.6795 68.0452 101.979Z" fill="black"/>
<defs>
<linearGradient id="paint0_linear" x1="98.3904" y1="266.356" x2="160.186" y2="356.99" gradientUnits="userSpaceOnUse">
<stop stop-color="white" stop-opacity="0.5"/>
<stop offset="1" stop-color="white" stop-opacity="0"/>
</linearGradient>
<linearGradient id="paint1_linear" x1="137.571" y1="307.27" x2="160.687" y2="334.735" gradientUnits="userSpaceOnUse">
<stop stop-color="white" stop-opacity="0.5"/>
<stop offset="1" stop-color="white" stop-opacity="0"/>
</linearGradient>
<linearGradient id="paint2_linear" x1="406.469" y1="325.93" x2="425.624" y2="345.153" gradientUnits="userSpaceOnUse">
<stop stop-color="white" stop-opacity="0"/>
<stop offset="0.535456" stop-color="white"/>
<stop offset="1" stop-color="white" stop-opacity="0"/>
</linearGradient>
<linearGradient id="paint3_linear" x1="355.39" y1="370.842" x2="401.717" y2="346.046" gradientUnits="userSpaceOnUse">
<stop stop-color="#85CBDC"/>
<stop offset="1" stop-color="#85CBDC" stop-opacity="0"/>
</linearGradient>
</defs>
</svg>
